999
Generated by Autodesk CAM - http://cam.autodesk.com
999
UNIT = MM
999
THICKNESS = 3
0
SECTION
2
HEADER
9
$ACADVER
1
AC1006
9
$ANGBASE
50
0
9
$ANGDIR
70
0
0
ENDSEC
0
SECTION
2
BLOCKS
0
ENDSEC
9
$EXTMIN
10
-0.05
20
-0.05
30
0
9
$EXTMAX
10
30.05
20
74.917
30
15
0
SECTION
2
ENTITIES
0
LINE
8
0
62
1
10
17.366
20
6.623
30
0
11
11.398
21
6.647
31
0
0
LINE
8
0
62
1
10
11.398
20
6.647
30
0
11
10.754
21
6.65
31
0
0
LINE
8
0
62
1
10
10.754
20
6.65
30
0
11
10.127
21
6.651
31
0
0
LINE
8
0
62
1
10
10.127
20
6.651
30
0
11
9.518
21
6.653
31
0
0
LINE
8
0
62
1
10
9.518
20
6.653
30
0
11
8.933
21
6.653
31
0
0
LINE
8
0
62
1
10
8.933
20
6.653
30
0
11
8.373
21
6.654
31
0
0
LINE
8
0
62
1
10
8.373
20
6.654
30
0
11
7.843
21
6.653
31
0
0
LINE
8
0
62
1
10
7.843
20
6.653
30
0
11
7.346
21
6.652
31
0
0
LINE
8
0
62
1
10
7.346
20
6.652
30
0
11
6.884
21
6.651
31
0
0
LINE
8
0
62
1
10
6.884
20
6.651
30
0
11
6.668
21
6.65
31
0
0
LINE
8
0
62
1
10
6.668
20
6.65
30
0
11
6.462
21
6.649
31
0
0
LINE
8
0
62
1
10
6.462
20
6.649
30
0
11
6.267
21
6.648
31
0
0
LINE
8
0
62
1
10
6.267
20
6.648
30
0
11
6.082
21
6.647
31
0
0
LINE
8
0
62
1
10
6.082
20
6.647
30
0
11
5.91
21
6.645
31
0
0
LINE
8
0
62
1
10
5.91
20
6.645
30
0
11
5.749
21
6.644
31
0
0
LINE
8
0
62
1
10
5.749
20
6.644
30
0
11
5.601
21
6.642
31
0
0
LINE
8
0
62
1
10
5.601
20
6.642
30
0
11
5.465
21
6.641
31
0
0
LINE
8
0
62
1
10
5.465
20
6.641
30
0
11
5.343
21
6.639
31
0
0
LINE
8
0
62
1
10
5.343
20
6.639
30
0
11
5.234
21
6.637
31
0
0
LINE
8
0
62
1
10
5.234
20
6.637
30
0
11
5.139
21
6.635
31
0
0
LINE
8
0
62
1
10
5.139
20
6.635
30
0
11
5.059
21
6.633
31
0
0
LINE
8
0
62
1
10
5.059
20
6.633
30
0
11
4.994
21
6.631
31
0
0
LINE
8
0
62
1
10
4.994
20
6.631
30
0
11
4.944
21
6.628
31
0
0
LINE
8
0
62
1
10
4.944
20
6.628
30
0
11
4.912
21
6.626
31
0
0
LINE
8
0
62
1
10
4.912
20
6.626
30
0
11
4.901
21
6.625
31
0
0
LINE
8
0
62
1
10
4.901
20
6.625
30
0
11
4.819
21
6.59
31
0
0
LINE
8
0
62
1
10
4.819
20
6.59
30
0
11
4.754
21
6.536
31
0
0
LINE
8
0
62
1
10
4.754
20
6.536
30
0
11
4.705
21
6.464
31
0
0
LINE
8
0
62
1
10
4.705
20
6.464
30
0
11
4.675
21
6.38
31
0
0
LINE
8
0
62
1
10
4.675
20
6.38
30
0
11
4.665
21
6.288
31
0
0
LINE
8
0
62
1
10
4.665
20
6.288
30
0
11
4.677
21
6.194
31
0
0
LINE
8
0
62
1
10
4.677
20
6.194
30
0
11
4.711
21
6.104
31
0
0
LINE
8
0
62
1
10
4.711
20
6.104
30
0
11
4.768
21
6.021
31
0
0
LINE
8
0
62
1
10
4.768
20
6.021
30
0
11
4.827
21
5.973
31
0
0
LINE
8
0
62
1
10
4.827
20
5.973
30
0
11
4.874
21
5.954
31
0
0
LINE
8
0
62
1
10
4.874
20
5.954
30
0
11
4.952
21
5.935
31
0
0
LINE
8
0
62
1
10
4.952
20
5.935
30
0
11
5.067
21
5.919
31
0
0
LINE
8
0
62
1
10
5.067
20
5.919
30
0
11
5.141
21
5.911
31
0
0
LINE
8
0
62
1
10
5.141
20
5.911
30
0
11
5.227
21
5.904
31
0
0
LINE
8
0
62
1
10
5.227
20
5.904
30
0
11
5.327
21
5.898
31
0
0
LINE
8
0
62
1
10
5.327
20
5.898
30
0
11
5.44
21
5.893
31
0
0
LINE
8
0
62
1
10
5.44
20
5.893
30
0
11
5.57
21
5.887
31
0
0
LINE
8
0
62
1
10
5.57
20
5.887
30
0
11
5.715
21
5.883
31
0
0
LINE
8
0
62
1
10
5.715
20
5.883
30
0
11
5.879
21
5.879
31
0
0
LINE
8
0
62
1
10
5.879
20
5.879
30
0
11
6.06
21
5.875
31
0
0
LINE
8
0
62
1
10
6.06
20
5.875
30
0
11
6.262
21
5.872
31
0
0
LINE
8
0
62
1
10
6.262
20
5.872
30
0
11
6.484
21
5.869
31
0
0
LINE
8
0
62
1
10
6.484
20
5.869
30
0
11
6.728
21
5.867
31
0
0
LINE
8
0
62
1
10
6.728
20
5.867
30
0
11
6.995
21
5.865
31
0
0
LINE
8
0
62
1
10
6.995
20
5.865
30
0
11
7.286
21
5.863
31
0
0
LINE
8
0
62
1
10
7.286
20
5.863
30
0
11
7.602
21
5.862
31
0
0
LINE
8
0
62
1
10
7.602
20
5.862
30
0
11
7.944
21
5.861
31
0
0
LINE
8
0
62
1
10
7.944
20
5.861
30
0
11
8.313
21
5.86
31
0
0
LINE
8
0
62
1
10
8.313
20
5.86
30
0
11
8.711
21
5.859
31
0
0
LINE
8
0
62
1
10
8.711
20
5.859
30
0
11
9.138
21
5.858
31
0
0
LINE
8
0
62
1
10
9.138
20
5.858
30
0
11
9.596
21
5.858
31
0
0
LINE
8
0
62
1
10
9.596
20
5.858
30
0
11
10.085
21
5.858
31
0
0
LINE
8
0
62
1
10
10.085
20
5.858
30
0
11
10.607
21
5.857
31
0
0
LINE
8
0
62
1
10
10.607
20
5.857
30
0
11
11.163
21
5.857
31
0
0
LINE
8
0
62
1
10
11.163
20
5.857
30
0
11
11.697
21
5.857
31
0
0
LINE
8
0
62
1
10
11.697
20
5.857
30
0
11
12.2
21
5.857
31
0
0
LINE
8
0
62
1
10
12.2
20
5.857
30
0
11
12.674
21
5.856
31
0
0
LINE
8
0
62
1
10
12.674
20
5.856
30
0
11
13.119
21
5.856
31
0
0
LINE
8
0
62
1
10
13.119
20
5.856
30
0
11
13.535
21
5.855
31
0
0
LINE
8
0
62
1
10
13.535
20
5.855
30
0
11
13.925
21
5.854
31
0
0
LINE
8
0
62
1
10
13.925
20
5.854
30
0
11
14.289
21
5.853
31
0
0
LINE
8
0
62
1
10
14.289
20
5.853
30
0
11
14.627
21
5.852
31
0
0
LINE
8
0
62
1
10
14.627
20
5.852
30
0
11
14.942
21
5.851
31
0
0
LINE
8
0
62
1
10
14.942
20
5.851
30
0
11
15.234
21
5.849
31
0
0
LINE
8
0
62
1
10
15.234
20
5.849
30
0
11
15.503
21
5.847
31
0
0
LINE
8
0
62
1
10
15.503
20
5.847
30
0
11
15.751
21
5.844
31
0
0
LINE
8
0
62
1
10
15.751
20
5.844
30
0
11
15.752
21
5.844
31
0
0
LINE
8
0
62
1
10
15.752
20
5.844
30
0
11
15.98
21
5.841
31
0
0
LINE
8
0
62
1
10
15.98
20
5.841
30
0
11
16.189
21
5.838
31
0
0
LINE
8
0
62
1
10
16.189
20
5.838
30
0
11
16.38
21
5.835
31
0
0
LINE
8
0
62
1
10
16.38
20
5.835
30
0
11
16.554
21
5.831
31
0
0
LINE
8
0
62
1
10
16.554
20
5.831
30
0
11
16.712
21
5.826
31
0
0
LINE
8
0
62
1
10
16.712
20
5.826
30
0
11
16.854
21
5.822
31
0
0
LINE
8
0
62
1
10
16.854
20
5.822
30
0
11
16.855
21
5.822
31
0
0
LINE
8
0
62
1
10
16.855
20
5.822
30
0
11
16.983
21
5.816
31
0
0
LINE
8
0
62
1
10
16.983
20
5.816
30
0
11
17.098
21
5.81
31
0
0
LINE
8
0
62
1
10
17.098
20
5.81
30
0
11
17.099
21
5.81
31
0
0
LINE
8
0
62
1
10
17.099
20
5.81
30
0
11
17.201
21
5.804
31
0
0
LINE
8
0
62
1
10
17.201
20
5.804
30
0
11
17.202
21
5.804
31
0
0
LINE
8
0
62
1
10
17.202
20
5.804
30
0
11
17.293
21
5.797
31
0
0
LINE
8
0
62
1
10
17.293
20
5.797
30
0
11
17.294
21
5.797
31
0
0
LINE
8
0
62
1
10
17.294
20
5.797
30
0
11
17.447
21
5.781
31
0
0
LINE
8
0
62
1
10
17.447
20
5.781
30
0
11
17.449
21
5.78
31
0
0
LINE
8
0
62
1
10
17.449
20
5.78
30
0
11
17.569
21
5.762
31
0
0
LINE
8
0
62
1
10
17.569
20
5.762
30
0
11
17.572
21
5.761
31
0
0
LINE
8
0
62
1
10
17.572
20
5.761
30
0
11
17.666
21
5.74
31
0
0
LINE
8
0
62
1
10
17.666
20
5.74
30
0
11
17.67
21
5.739
31
0
0
LINE
8
0
62
1
10
17.67
20
5.739
30
0
11
17.746
21
5.715
31
0
0
LINE
8
0
62
1
10
17.746
20
5.715
30
0
11
17.75
21
5.714
31
0
0
LINE
8
0
62
1
10
17.75
20
5.714
30
0
11
17.816
21
5.686
31
0
0
LINE
8
0
62
1
10
17.816
20
5.686
30
0
11
17.819
21
5.685
31
0
0
LINE
8
0
62
1
10
17.819
20
5.685
30
0
11
17.954
21
5.617
31
0
0
LINE
8
0
62
1
10
17.954
20
5.617
30
0
11
17.957
21
5.615
31
0
0
LINE
8
0
62
1
10
17.957
20
5.615
30
0
11
18.085
21
5.537
31
0
0
LINE
8
0
62
1
10
18.085
20
5.537
30
0
11
18.088
21
5.535
31
0
0
LINE
8
0
62
1
10
18.088
20
5.535
30
0
11
18.208
21
5.449
31
0
0
LINE
8
0
62
1
10
18.208
20
5.449
30
0
11
18.211
21
5.446
31
0
0
LINE
8
0
62
1
10
18.211
20
5.446
30
0
11
18.324
21
5.351
31
0
0
LINE
8
0
62
1
10
18.324
20
5.351
30
0
11
18.327
21
5.348
31
0
0
LINE
8
0
62
1
10
18.327
20
5.348
30
0
11
18.431
21
5.245
31
0
0
LINE
8
0
62
1
10
18.431
20
5.245
30
0
11
18.434
21
5.242
31
0
0
LINE
8
0
62
1
10
18.434
20
5.242
30
0
11
18.53
21
5.132
31
0
0
LINE
8
0
62
1
10
18.53
20
5.132
30
0
11
18.532
21
5.129
31
0
0
LINE
8
0
62
1
10
18.532
20
5.129
30
0
11
18.62
21
5.012
31
0
0
LINE
8
0
62
1
10
18.62
20
5.012
30
0
11
18.622
21
5.009
31
0
0
LINE
8
0
62
1
10
18.622
20
5.009
30
0
11
18.7
21
4.886
31
0
0
LINE
8
0
62
1
10
18.7
20
4.886
30
0
11
18.702
21
4.883
31
0
0
LINE
8
0
62
1
10
18.702
20
4.883
30
0
11
18.771
21
4.754
31
0
0
LINE
8
0
62
1
10
18.771
20
4.754
30
0
11
18.773
21
4.751
31
0
0
LINE
8
0
62
1
10
18.773
20
4.751
30
0
11
18.831
21
4.617
31
0
0
LINE
8
0
62
1
10
18.831
20
4.617
30
0
11
18.833
21
4.614
31
0
0
LINE
8
0
62
1
10
18.833
20
4.614
30
0
11
18.881
21
4.477
31
0
0
LINE
8
0
62
1
10
18.881
20
4.477
30
0
11
18.883
21
4.473
31
0
0
LINE
8
0
62
1
10
18.883
20
4.473
30
0
11
18.921
21
4.332
31
0
0
LINE
8
0
62
1
10
18.921
20
4.332
30
0
11
18.922
21
4.328
31
0
0
LINE
8
0
62
1
10
18.922
20
4.328
30
0
11
18.949
21
4.185
31
0
0
LINE
8
0
62
1
10
18.949
20
4.185
30
0
11
18.949
21
4.181
31
0
0
LINE
8
0
62
1
10
18.949
20
4.181
30
0
11
18.965
21
4.035
31
0
0
LINE
8
0
62
1
10
18.965
20
4.035
30
0
11
18.965
21
4.031
31
0
0
LINE
8
0
62
1
10
18.965
20
4.031
30
0
11
18.969
21
3.884
31
0
0
LINE
8
0
62
1
10
18.969
20
3.884
30
0
11
18.969
21
3.88
31
0
0
LINE
8
0
62
1
10
18.969
20
3.88
30
0
11
18.961
21
3.731
31
0
0
LINE
8
0
62
1
10
18.961
20
3.731
30
0
11
18.96
21
3.727
31
0
0
LINE
8
0
62
1
10
18.96
20
3.727
30
0
11
18.939
21
3.568
31
0
0
LINE
8
0
62
1
10
18.939
20
3.568
30
0
11
18.939
21
3.564
31
0
0
LINE
8
0
62
1
10
18.939
20
3.564
30
0
11
18.907
21
3.41
31
0
0
LINE
8
0
62
1
10
18.907
20
3.41
30
0
11
18.906
21
3.407
31
0
0
LINE
8
0
62
1
10
18.906
20
3.407
30
0
11
18.864
21
3.258
31
0
0
LINE
8
0
62
1
10
18.864
20
3.258
30
0
11
18.863
21
3.254
31
0
0
LINE
8
0
62
1
10
18.863
20
3.254
30
0
11
18.811
21
3.111
31
0
0
LINE
8
0
62
1
10
18.811
20
3.111
30
0
11
18.809
21
3.108
31
0
0
LINE
8
0
62
1
10
18.809
20
3.108
30
0
11
18.747
21
2.971
31
0
0
LINE
8
0
62
1
10
18.747
20
2.971
30
0
11
18.746
21
2.968
31
0
0
LINE
8
0
62
1
10
18.746
20
2.968
30
0
11
18.674
21
2.837
31
0
0
LINE
8
0
62
1
10
18.674
20
2.837
30
0
11
18.672
21
2.834
31
0
0
LINE
8
0
62
1
10
18.672
20
2.834
30
0
11
18.592
21
2.711
31
0
0
LINE
8
0
62
1
10
18.592
20
2.711
30
0
11
18.589
21
2.708
31
0
0
LINE
8
0
62
1
10
18.589
20
2.708
30
0
11
18.5
21
2.591
31
0
0
LINE
8
0
62
1
10
18.5
20
2.591
30
0
11
18.497
21
2.588
31
0
0
LINE
8
0
62
1
10
18.497
20
2.588
30
0
11
18.399
21
2.48
31
0
0
LINE
8
0
62
1
10
18.399
20
2.48
30
0
11
18.396
21
2.477
31
0
0
LINE
8
0
62
1
10
18.396
20
2.477
30
0
11
18.289
21
2.376
31
0
0
LINE
8
0
62
1
10
18.289
20
2.376
30
0
11
18.286
21
2.373
31
0
0
LINE
8
0
62
1
10
18.286
20
2.373
30
0
11
18.172
21
2.281
31
0
0
LINE
8
0
62
1
10
18.172
20
2.281
30
0
11
18.168
21
2.278
31
0
0
LINE
8
0
62
1
10
18.168
20
2.278
30
0
11
18.046
21
2.194
31
0
0
LINE
8
0
62
1
10
18.046
20
2.194
30
0
11
18.043
21
2.192
31
0
0
LINE
8
0
62
1
10
18.043
20
2.192
30
0
11
17.912
21
2.117
31
0
0
LINE
8
0
62
1
10
17.912
20
2.117
30
0
11
17.909
21
2.115
31
0
0
LINE
8
0
62
1
10
17.909
20
2.115
30
0
11
17.771
21
2.049
31
0
0
LINE
8
0
62
1
10
17.771
20
2.049
30
0
11
17.768
21
2.048
31
0
0
LINE
8
0
62
1
10
17.768
20
2.048
30
0
11
17.624
21
1.991
31
0
0
LINE
8
0
62
1
10
17.624
20
1.991
30
0
11
17.62
21
1.99
31
0
0
LINE
8
0
62
1
10
17.62
20
1.99
30
0
11
17.469
21
1.943
31
0
0
LINE
8
0
62
1
10
17.469
20
1.943
30
0
11
17.464
21
1.942
31
0
0
LINE
8
0
62
1
10
17.464
20
1.942
30
0
11
17.31
21
1.911
31
0
0
LINE
8
0
62
1
10
17.31
20
1.911
30
0
11
17.304
21
1.91
31
0
0
LINE
8
0
62
1
10
17.304
20
1.91
30
0
11
17.136
21
1.894
31
0
0
LINE
8
0
62
1
10
17.136
20
1.894
30
0
11
17.132
21
1.893
31
0
0
LINE
8
0
62
1
10
17.132
20
1.893
30
0
11
16.955
21
1.892
31
0
0
LINE
8
0
62
1
10
16.955
20
1.892
30
0
11
16.951
21
1.892
31
0
0
LINE
8
0
62
1
10
16.951
20
1.892
30
0
11
16.771
21
1.905
31
0
0
LINE
8
0
62
1
10
16.771
20
1.905
30
0
11
16.767
21
1.905
31
0
0
LINE
8
0
62
1
10
16.767
20
1.905
30
0
11
16.588
21
1.931
31
0
0
LINE
8
0
62
1
10
16.588
20
1.931
30
0
11
16.584
21
1.932
31
0
0
LINE
8
0
62
1
10
16.584
20
1.932
30
0
11
16.412
21
1.972
31
0
0
LINE
8
0
62
1
10
16.412
20
1.972
30
0
11
16.408
21
1.973
31
0
0
LINE
8
0
62
1
10
16.408
20
1.973
30
0
11
16.247
21
2.025
31
0
0
LINE
8
0
62
1
10
16.247
20
2.025
30
0
11
16.242
21
2.027
31
0
0
LINE
8
0
62
1
10
16.242
20
2.027
30
0
11
16.097
21
2.091
31
0
0
LINE
8
0
62
1
10
16.097
20
2.091
30
0
11
16.092
21
2.093
31
0
0
LINE
8
0
62
1
10
16.092
20
2.093
30
0
11
15.988
21
2.154
31
0
0
LINE
8
0
62
1
10
15.988
20
2.154
30
0
11
15.984
21
2.156
31
0
0
LINE
8
0
62
1
10
15.984
20
2.156
30
0
11
15.881
21
2.229
31
0
0
LINE
8
0
62
1
10
15.881
20
2.229
30
0
11
15.877
21
2.232
31
0
0
LINE
8
0
62
1
10
15.877
20
2.232
30
0
11
15.678
21
2.408
31
0
0
LINE
8
0
62
1
10
15.678
20
2.408
30
0
11
15.674
21
2.412
31
0
0
LINE
8
0
62
1
10
15.674
20
2.412
30
0
11
15.489
21
2.621
31
0
0
LINE
8
0
62
1
10
15.489
20
2.621
30
0
11
15.486
21
2.625
31
0
0
LINE
8
0
62
1
10
15.486
20
2.625
30
0
11
15.322
21
2.858
31
0
0
LINE
8
0
62
1
10
15.322
20
2.858
30
0
11
15.319
21
2.862
31
0
0
LINE
8
0
62
1
10
15.319
20
2.862
30
0
11
15.182
21
3.109
31
0
0
LINE
8
0
62
1
10
15.182
20
3.109
30
0
11
15.179
21
3.114
31
0
0
LINE
8
0
62
1
10
15.179
20
3.114
30
0
11
15.073
21
3.366
31
0
0
LINE
8
0
62
1
10
15.073
20
3.366
30
0
11
15.072
21
3.37
31
0
0
LINE
8
0
62
1
10
15.072
20
3.37
30
0
11
15.033
21
3.495
31
0
0
LINE
8
0
62
1
10
15.033
20
3.495
30
0
11
15.032
21
3.499
31
0
0
LINE
8
0
62
1
10
15.032
20
3.499
30
0
11
15.003
21
3.622
31
0
0
LINE
8
0
62
1
10
15.003
20
3.622
30
0
11
15.002
21
3.626
31
0
0
LINE
8
0
62
1
10
15.002
20
3.626
30
0
11
14.985
21
3.745
31
0
0
LINE
8
0
62
1
10
14.985
20
3.745
30
0
11
14.984
21
3.75
31
0
0
LINE
8
0
62
1
10
14.984
20
3.75
30
0
11
14.978
21
3.862
31
0
0
LINE
8
0
62
1
10
14.978
20
3.862
30
0
11
14.963
21
3.96
31
0
0
LINE
8
0
62
1
10
14.963
20
3.96
30
0
11
14.923
21
4.046
31
0
0
LINE
8
0
62
1
10
14.923
20
4.046
30
0
11
14.86
21
4.124
31
0
0
LINE
8
0
62
1
10
14.86
20
4.124
30
0
11
14.782
21
4.187
31
0
0
LINE
8
0
62
1
10
14.782
20
4.187
30
0
11
14.693
21
4.233
31
0
0
LINE
8
0
62
1
10
14.693
20
4.233
30
0
11
14.6
21
4.256
31
0
0
LINE
8
0
62
1
10
14.6
20
4.256
30
0
11
14.511
21
4.256
31
0
0
LINE
8
0
62
1
10
14.511
20
4.256
30
0
11
14.427
21
4.228
31
0
0
LINE
8
0
62
1
10
14.427
20
4.228
30
0
11
14.351
21
4.179
31
0
0
LINE
8
0
62
1
10
14.351
20
4.179
30
0
11
14.292
21
4.121
31
0
0
LINE
8
0
62
1
10
14.292
20
4.121
30
0
11
14.25
21
4.052
31
0
0
LINE
8
0
62
1
10
14.25
20
4.052
30
0
11
14.222
21
3.967
31
0
0
LINE
8
0
62
1
10
14.222
20
3.967
30
0
11
14.208
21
3.861
31
0
0
LINE
8
0
62
1
10
14.208
20
3.861
30
0
11
14.21
21
3.73
31
0
0
LINE
8
0
62
1
10
14.21
20
3.73
30
0
11
14.226
21
3.572
31
0
0
LINE
8
0
62
1
10
14.226
20
3.572
30
0
11
14.257
21
3.385
31
0
0
LINE
8
0
62
1
10
14.257
20
3.385
30
0
11
14.304
21
3.168
31
0
0
LINE
8
0
62
1
10
14.304
20
3.168
30
0
11
14.36
21
2.971
31
0
0
LINE
8
0
62
1
10
14.36
20
2.971
30
0
11
14.426
21
2.79
31
0
0
LINE
8
0
62
1
10
14.426
20
2.79
30
0
11
14.506
21
2.62
31
0
0
LINE
8
0
62
1
10
14.506
20
2.62
30
0
11
14.601
21
2.456
31
0
0
LINE
8
0
62
1
10
14.601
20
2.456
30
0
11
14.714
21
2.294
31
0
0
LINE
8
0
62
1
10
14.714
20
2.294
30
0
11
14.848
21
2.129
31
0
0
LINE
8
0
62
1
10
14.848
20
2.129
30
0
11
15.006
21
1.957
31
0
0
LINE
8
0
62
1
10
15.006
20
1.957
30
0
11
15.159
21
1.806
31
0
0
LINE
8
0
62
1
10
15.159
20
1.806
30
0
11
15.316
21
1.67
31
0
0
LINE
8
0
62
1
10
15.316
20
1.67
30
0
11
15.478
21
1.549
31
0
0
LINE
8
0
62
1
10
15.478
20
1.549
30
0
11
15.645
21
1.441
31
0
0
LINE
8
0
62
1
10
15.645
20
1.441
30
0
11
15.818
21
1.347
31
0
0
LINE
8
0
62
1
10
15.818
20
1.347
30
0
11
15.997
21
1.266
31
0
0
LINE
8
0
62
1
10
15.997
20
1.266
30
0
11
16.184
21
1.197
31
0
0
LINE
8
0
62
1
10
16.184
20
1.197
30
0
11
16.377
21
1.142
31
0
0
LINE
8
0
62
1
10
16.377
20
1.142
30
0
11
16.585
21
1.103
31
0
0
LINE
8
0
62
1
10
16.585
20
1.103
30
0
11
16.807
21
1.086
31
0
0
LINE
8
0
62
1
10
16.807
20
1.086
30
0
11
17.04
21
1.09
31
0
0
LINE
8
0
62
1
10
17.04
20
1.09
30
0
11
17.282
21
1.115
31
0
0
LINE
8
0
62
1
10
17.282
20
1.115
30
0
11
17.527
21
1.161
31
0
0
LINE
8
0
62
1
10
17.527
20
1.161
30
0
11
17.774
21
1.227
31
0
0
LINE
8
0
62
1
10
17.774
20
1.227
30
0
11
18.017
21
1.312
31
0
0
LINE
8
0
62
1
10
18.017
20
1.312
30
0
11
18.254
21
1.416
31
0
0
LINE
8
0
62
1
10
18.254
20
1.416
30
0
11
18.44
21
1.516
31
0
0
LINE
8
0
62
1
10
18.44
20
1.516
30
0
11
18.614
21
1.625
31
0
0
LINE
8
0
62
1
10
18.614
20
1.625
30
0
11
18.776
21
1.745
31
0
0
LINE
8
0
62
1
10
18.776
20
1.745
30
0
11
18.925
21
1.874
31
0
0
LINE
8
0
62
1
10
18.925
20
1.874
30
0
11
19.062
21
2.012
31
0
0
LINE
8
0
62
1
10
19.062
20
2.012
30
0
11
19.187
21
2.157
31
0
0
LINE
8
0
62
1
10
19.187
20
2.157
30
0
11
19.3
21
2.31
31
0
0
LINE
8
0
62
1
10
19.3
20
2.31
30
0
11
19.4
21
2.469
31
0
0
LINE
8
0
62
1
10
19.4
20
2.469
30
0
11
19.489
21
2.633
31
0
0
LINE
8
0
62
1
10
19.489
20
2.633
30
0
11
19.565
21
2.803
31
0
0
LINE
8
0
62
1
10
19.565
20
2.803
30
0
11
19.63
21
2.977
31
0
0
LINE
8
0
62
1
10
19.63
20
2.977
30
0
11
19.682
21
3.155
31
0
0
LINE
8
0
62
1
10
19.682
20
3.155
30
0
11
19.722
21
3.335
31
0
0
LINE
8
0
62
1
10
19.722
20
3.335
30
0
11
19.75
21
3.518
31
0
0
LINE
8
0
62
1
10
19.75
20
3.518
30
0
11
19.766
21
3.703
31
0
0
LINE
8
0
62
1
10
19.766
20
3.703
30
0
11
19.77
21
3.888
31
0
0
LINE
8
0
62
1
10
19.77
20
3.888
30
0
11
19.762
21
4.073
31
0
0
LINE
8
0
62
1
10
19.762
20
4.073
30
0
11
19.742
21
4.257
31
0
0
LINE
8
0
62
1
10
19.742
20
4.257
30
0
11
19.709
21
4.441
31
0
0
LINE
8
0
62
1
10
19.709
20
4.441
30
0
11
19.665
21
4.622
31
0
0
LINE
8
0
62
1
10
19.665
20
4.622
30
0
11
19.609
21
4.8
31
0
0
LINE
8
0
62
1
10
19.609
20
4.8
30
0
11
19.54
21
4.975
31
0
0
LINE
8
0
62
1
10
19.54
20
4.975
30
0
11
19.46
21
5.145
31
0
0
LINE
8
0
62
1
10
19.46
20
5.145
30
0
11
19.368
21
5.311
31
0
0
LINE
8
0
62
1
10
19.368
20
5.311
30
0
11
19.263
21
5.471
31
0
0
LINE
8
0
62
1
10
19.263
20
5.471
30
0
11
19.147
21
5.624
31
0
0
LINE
8
0
62
1
10
19.147
20
5.624
30
0
11
19.019
21
5.771
31
0
0
LINE
8
0
62
1
10
19.019
20
5.771
30
0
11
18.878
21
5.91
31
0
0
LINE
8
0
62
1
10
18.878
20
5.91
30
0
11
18.726
21
6.04
31
0
0
LINE
8
0
62
1
10
18.726
20
6.04
30
0
11
18.562
21
6.162
31
0
0
LINE
8
0
62
1
10
18.562
20
6.162
30
0
11
18.385
21
6.273
31
0
0
LINE
8
0
62
1
10
18.385
20
6.273
30
0
11
18.196
21
6.375
31
0
0
LINE
8
0
62
1
10
18.196
20
6.375
30
0
11
17.693
21
6.621
31
0
0
LINE
8
0
62
1
10
17.693
20
6.621
30
0
11
17.366
21
6.623
31
0
0
LINE
8
0
62
1
10
20.394
20
7.497
30
0
11
20.348
21
7.554
31
0
0
LINE
8
0
62
1
10
20.348
20
7.554
30
0
11
20.27
21
7.617
31
0
0
LINE
8
0
62
1
10
20.27
20
7.617
30
0
11
20.181
21
7.663
31
0
0
LINE
8
0
62
1
10
20.181
20
7.663
30
0
11
20.088
21
7.686
31
0
0
LINE
8
0
62
1
10
20.088
20
7.686
30
0
11
19.999
21
7.686
31
0
0
LINE
8
0
62
1
10
19.999
20
7.686
30
0
11
19.915
21
7.658
31
0
0
LINE
8
0
62
1
10
19.915
20
7.658
30
0
11
19.839
21
7.609
31
0
0
LINE
8
0
62
1
10
19.839
20
7.609
30
0
11
19.78
21
7.551
31
0
0
LINE
8
0
62
1
10
19.78
20
7.551
30
0
11
19.738
21
7.482
31
0
0
LINE
8
0
62
1
10
19.738
20
7.482
30
0
11
19.71
21
7.397
31
0
0
LINE
8
0
62
1
10
19.71
20
7.397
30
0
11
19.696
21
7.291
31
0
0
LINE
8
0
62
1
10
19.696
20
7.291
30
0
11
19.698
21
7.16
31
0
0
LINE
8
0
62
1
10
19.698
20
7.16
30
0
11
19.714
21
7.002
31
0
0
LINE
8
0
62
1
10
19.714
20
7.002
30
0
11
19.745
21
6.815
31
0
0
LINE
8
0
62
1
10
19.745
20
6.815
30
0
11
19.792
21
6.598
31
0
0
LINE
8
0
62
1
10
19.792
20
6.598
30
0
11
19.848
21
6.401
31
0
0
LINE
8
0
62
1
10
19.848
20
6.401
30
0
11
19.914
21
6.22
31
0
0
LINE
8
0
62
1
10
19.914
20
6.22
30
0
11
19.994
21
6.05
31
0
0
LINE
8
0
62
1
10
19.994
20
6.05
30
0
11
20.089
21
5.886
31
0
0
LINE
8
0
62
1
10
20.089
20
5.886
30
0
11
20.202
21
5.724
31
0
0
LINE
8
0
62
1
10
20.202
20
5.724
30
0
11
20.337
21
5.559
31
0
0
LINE
8
0
62
1
10
20.337
20
5.559
30
0
11
20.494
21
5.387
31
0
0
LINE
8
0
62
1
10
20.494
20
5.387
30
0
11
20.647
21
5.236
31
0
0
LINE
8
0
62
1
10
20.647
20
5.236
30
0
11
20.804
21
5.1
31
0
0
LINE
8
0
62
1
10
20.804
20
5.1
30
0
11
20.966
21
4.979
31
0
0
LINE
8
0
62
1
10
20.966
20
4.979
30
0
11
21.133
21
4.871
31
0
0
LINE
8
0
62
1
10
21.133
20
4.871
30
0
11
21.306
21
4.777
31
0
0
LINE
8
0
62
1
10
21.306
20
4.777
30
0
11
21.485
21
4.696
31
0
0
LINE
8
0
62
1
10
21.485
20
4.696
30
0
11
21.672
21
4.627
31
0
0
LINE
8
0
62
1
10
21.672
20
4.627
30
0
11
21.865
21
4.572
31
0
0
LINE
8
0
62
1
10
21.865
20
4.572
30
0
11
22.073
21
4.533
31
0
0
LINE
8
0
62
1
10
22.073
20
4.533
30
0
11
22.295
21
4.516
31
0
0
LINE
8
0
62
1
10
22.295
20
4.516
30
0
11
22.528
21
4.52
31
0
0
LINE
8
0
62
1
10
22.528
20
4.52
30
0
11
22.77
21
4.545
31
0
0
LINE
8
0
62
1
10
22.77
20
4.545
30
0
11
23.015
21
4.591
31
0
0
LINE
8
0
62
1
10
23.015
20
4.591
30
0
11
23.262
21
4.657
31
0
0
LINE
8
0
62
1
10
23.262
20
4.657
30
0
11
23.505
21
4.742
31
0
0
LINE
8
0
62
1
10
23.505
20
4.742
30
0
11
23.742
21
4.846
31
0
0
LINE
8
0
62
1
10
23.742
20
4.846
30
0
11
23.928
21
4.946
31
0
0
LINE
8
0
62
1
10
23.928
20
4.946
30
0
11
24.102
21
5.055
31
0
0
LINE
8
0
62
1
10
24.102
20
5.055
30
0
11
24.264
21
5.175
31
0
0
LINE
8
0
62
1
10
24.264
20
5.175
30
0
11
24.413
21
5.304
31
0
0
LINE
8
0
62
1
10
24.413
20
5.304
30
0
11
24.55
21
5.442
31
0
0
LINE
8
0
62
1
10
24.55
20
5.442
30
0
11
24.675
21
5.587
31
0
0
LINE
8
0
62
1
10
24.675
20
5.587
30
0
11
24.788
21
5.74
31
0
0
LINE
8
0
62
1
10
24.788
20
5.74
30
0
11
24.888
21
5.899
31
0
0
LINE
8
0
62
1
10
24.888
20
5.899
30
0
11
24.977
21
6.063
31
0
0
LINE
8
0
62
1
10
24.977
20
6.063
30
0
11
25.053
21
6.233
31
0
0
LINE
8
0
62
1
10
25.053
20
6.233
30
0
11
25.118
21
6.407
31
0
0
LINE
8
0
62
1
10
25.118
20
6.407
30
0
11
25.17
21
6.585
31
0
0
LINE
8
0
62
1
10
25.17
20
6.585
30
0
11
25.21
21
6.765
31
0
0
LINE
8
0
62
1
10
25.21
20
6.765
30
0
11
25.238
21
6.948
31
0
0
LINE
8
0
62
1
10
25.238
20
6.948
30
0
11
25.254
21
7.133
31
0
0
LINE
8
0
62
1
10
25.254
20
7.133
30
0
11
25.258
21
7.318
31
0
0
LINE
8
0
62
1
10
25.258
20
7.318
30
0
11
25.25
21
7.503
31
0
0
LINE
8
0
62
1
10
25.25
20
7.503
30
0
11
25.23
21
7.687
31
0
0
LINE
8
0
62
1
10
25.23
20
7.687
30
0
11
25.197
21
7.871
31
0
0
LINE
8
0
62
1
10
25.197
20
7.871
30
0
11
25.153
21
8.052
31
0
0
LINE
8
0
62
1
10
25.153
20
8.052
30
0
11
25.097
21
8.23
31
0
0
LINE
8
0
62
1
10
25.097
20
8.23
30
0
11
25.028
21
8.405
31
0
0
LINE
8
0
62
1
10
25.028
20
8.405
30
0
11
24.948
21
8.575
31
0
0
LINE
8
0
62
1
10
24.948
20
8.575
30
0
11
24.856
21
8.741
31
0
0
LINE
8
0
62
1
10
24.856
20
8.741
30
0
11
24.751
21
8.901
31
0
0
LINE
8
0
62
1
10
24.751
20
8.901
30
0
11
24.635
21
9.054
31
0
0
LINE
8
0
62
1
10
24.635
20
9.054
30
0
11
24.507
21
9.201
31
0
0
LINE
8
0
62
1
10
24.507
20
9.201
30
0
11
24.366
21
9.34
31
0
0
LINE
8
0
62
1
10
24.366
20
9.34
30
0
11
24.214
21
9.47
31
0
0
LINE
8
0
62
1
10
24.214
20
9.47
30
0
11
24.05
21
9.592
31
0
0
LINE
8
0
62
1
10
24.05
20
9.592
30
0
11
23.873
21
9.703
31
0
0
LINE
8
0
62
1
10
23.873
20
9.703
30
0
11
23.684
21
9.805
31
0
0
LINE
8
0
62
1
10
23.684
20
9.805
30
0
11
23.181
21
10.051
31
0
0
LINE
8
0
62
1
10
23.181
20
10.051
30
0
11
18.182
21
10.072
31
0
0
LINE
8
0
62
1
10
18.182
20
10.072
30
0
11
16.886
21
10.077
31
0
0
LINE
8
0
62
1
10
16.886
20
10.077
30
0
11
16.242
21
10.08
31
0
0
LINE
8
0
62
1
10
16.242
20
10.08
30
0
11
15.615
21
10.082
31
0
0
LINE
8
0
62
1
10
15.615
20
10.082
30
0
11
15.007
21
10.083
31
0
0
LINE
8
0
62
1
10
15.007
20
10.083
30
0
11
14.421
21
10.083
31
0
0
LINE
8
0
62
1
10
14.421
20
10.083
30
0
11
13.861
21
10.084
31
0
0
LINE
8
0
62
1
10
13.861
20
10.084
30
0
11
13.331
21
10.083
31
0
0
LINE
8
0
62
1
10
13.331
20
10.083
30
0
11
12.834
21
10.082
31
0
0
LINE
8
0
62
1
10
12.834
20
10.082
30
0
11
12.372
21
10.081
31
0
0
LINE
8
0
62
1
10
12.372
20
10.081
30
0
11
12.156
21
10.08
31
0
0
LINE
8
0
62
1
10
12.156
20
10.08
30
0
11
11.95
21
10.079
31
0
0
LINE
8
0
62
1
10
11.95
20
10.079
30
0
11
11.755
21
10.078
31
0
0
LINE
8
0
62
1
10
11.755
20
10.078
30
0
11
11.57
21
10.077
31
0
0
LINE
8
0
62
1
10
11.57
20
10.077
30
0
11
11.398
21
10.075
31
0
0
LINE
8
0
62
1
10
11.398
20
10.075
30
0
11
11.237
21
10.074
31
0
0
LINE
8
0
62
1
10
11.237
20
10.074
30
0
11
11.089
21
10.072
31
0
0
LINE
8
0
62
1
10
11.089
20
10.072
30
0
11
10.953
21
10.071
31
0
0
LINE
8
0
62
1
10
10.953
20
10.071
30
0
11
10.831
21
10.069
31
0
0
LINE
8
0
62
1
10
10.831
20
10.069
30
0
11
10.722
21
10.067
31
0
0
LINE
8
0
62
1
10
10.722
20
10.067
30
0
11
10.627
21
10.065
31
0
0
LINE
8
0
62
1
10
10.627
20
10.065
30
0
11
10.547
21
10.063
31
0
0
LINE
8
0
62
1
10
10.547
20
10.063
30
0
11
10.482
21
10.061
31
0
0
LINE
8
0
62
1
10
10.482
20
10.061
30
0
11
10.432
21
10.058
31
0
0
LINE
8
0
62
1
10
10.432
20
10.058
30
0
11
10.4
21
10.056
31
0
0
LINE
8
0
62
1
10
10.4
20
10.056
30
0
11
10.389
21
10.055
31
0
0
LINE
8
0
62
1
10
10.389
20
10.055
30
0
11
10.307
21
10.02
31
0
0
LINE
8
0
62
1
10
10.307
20
10.02
30
0
11
10.242
21
9.966
31
0
0
LINE
8
0
62
1
10
10.242
20
9.966
30
0
11
10.193
21
9.894
31
0
0
LINE
8
0
62
1
10
10.193
20
9.894
30
0
11
10.163
21
9.81
31
0
0
LINE
8
0
62
1
10
10.163
20
9.81
30
0
11
10.153
21
9.718
31
0
0
LINE
8
0
62
1
10
10.153
20
9.718
30
0
11
10.165
21
9.624
31
0
0
LINE
8
0
62
1
10
10.165
20
9.624
30
0
11
10.199
21
9.534
31
0
0
LINE
8
0
62
1
10
10.199
20
9.534
30
0
11
10.256
21
9.451
31
0
0
LINE
8
0
62
1
10
10.256
20
9.451
30
0
11
10.315
21
9.403
31
0
0
LINE
8
0
62
1
10
10.315
20
9.403
30
0
11
10.362
21
9.384
31
0
0
LINE
8
0
62
1
10
10.362
20
9.384
30
0
11
10.44
21
9.365
31
0
0
LINE
8
0
62
1
10
10.44
20
9.365
30
0
11
10.555
21
9.349
31
0
0
LINE
8
0
62
1
10
10.555
20
9.349
30
0
11
10.629
21
9.341
31
0
0
LINE
8
0
62
1
10
10.629
20
9.341
30
0
11
10.715
21
9.334
31
0
0
LINE
8
0
62
1
10
10.715
20
9.334
30
0
11
10.815
21
9.328
31
0
0
LINE
8
0
62
1
10
10.815
20
9.328
30
0
11
10.928
21
9.323
31
0
0
LINE
8
0
62
1
10
10.928
20
9.323
30
0
11
11.058
21
9.317
31
0
0
LINE
8
0
62
1
10
11.058
20
9.317
30
0
11
11.203
21
9.313
31
0
0
LINE
8
0
62
1
10
11.203
20
9.313
30
0
11
11.367
21
9.309
31
0
0
LINE
8
0
62
1
10
11.367
20
9.309
30
0
11
11.548
21
9.305
31
0
0
LINE
8
0
62
1
10
11.548
20
9.305
30
0
11
11.75
21
9.302
31
0
0
LINE
8
0
62
1
10
11.75
20
9.302
30
0
11
11.972
21
9.299
31
0
0
LINE
8
0
62
1
10
11.972
20
9.299
30
0
11
12.216
21
9.297
31
0
0
LINE
8
0
62
1
10
12.216
20
9.297
30
0
11
12.483
21
9.295
31
0
0
LINE
8
0
62
1
10
12.483
20
9.295
30
0
11
12.774
21
9.293
31
0
0
LINE
8
0
62
1
10
12.774
20
9.293
30
0
11
13.09
21
9.292
31
0
0
LINE
8
0
62
1
10
13.09
20
9.292
30
0
11
13.432
21
9.291
31
0
0
LINE
8
0
62
1
10
13.432
20
9.291
30
0
11
13.801
21
9.29
31
0
0
LINE
8
0
62
1
10
13.801
20
9.29
30
0
11
14.199
21
9.289
31
0
0
LINE
8
0
62
1
10
14.199
20
9.289
30
0
11
14.626
21
9.288
31
0
0
LINE
8
0
62
1
10
14.626
20
9.288
30
0
11
15.084
21
9.288
31
0
0
LINE
8
0
62
1
10
15.084
20
9.288
30
0
11
15.573
21
9.288
31
0
0
LINE
8
0
62
1
10
15.573
20
9.288
30
0
11
16.095
21
9.287
31
0
0
LINE
8
0
62
1
10
16.095
20
9.287
30
0
11
16.651
21
9.287
31
0
0
LINE
8
0
62
1
10
16.651
20
9.287
30
0
11
17.185
21
9.287
31
0
0
LINE
8
0
62
1
10
17.185
20
9.287
30
0
11
17.688
21
9.287
31
0
0
LINE
8
0
62
1
10
17.688
20
9.287
30
0
11
18.162
21
9.286
31
0
0
LINE
8
0
62
1
10
18.162
20
9.286
30
0
11
18.607
21
9.286
31
0
0
LINE
8
0
62
1
10
18.607
20
9.286
30
0
11
19.023
21
9.285
31
0
0
LINE
8
0
62
1
10
19.023
20
9.285
30
0
11
19.413
21
9.284
31
0
0
LINE
8
0
62
1
10
19.413
20
9.284
30
0
11
19.777
21
9.283
31
0
0
LINE
8
0
62
1
10
19.777
20
9.283
30
0
11
20.115
21
9.282
31
0
0
LINE
8
0
62
1
10
20.115
20
9.282
30
0
11
20.43
21
9.281
31
0
0
LINE
8
0
62
1
10
20.43
20
9.281
30
0
11
20.722
21
9.279
31
0
0
LINE
8
0
62
1
10
20.722
20
9.279
30
0
11
20.991
21
9.277
31
0
0
LINE
8
0
62
1
10
20.991
20
9.277
30
0
11
21.239
21
9.274
31
0
0
LINE
8
0
62
1
10
21.239
20
9.274
30
0
11
21.24
21
9.274
31
0
0
LINE
8
0
62
1
10
21.24
20
9.274
30
0
11
21.468
21
9.271
31
0
0
LINE
8
0
62
1
10
21.468
20
9.271
30
0
11
21.677
21
9.268
31
0
0
LINE
8
0
62
1
10
21.677
20
9.268
30
0
11
21.868
21
9.265
31
0
0
LINE
8
0
62
1
10
21.868
20
9.265
30
0
11
22.042
21
9.261
31
0
0
LINE
8
0
62
1
10
22.042
20
9.261
30
0
11
22.2
21
9.256
31
0
0
LINE
8
0
62
1
10
22.2
20
9.256
30
0
11
22.342
21
9.252
31
0
0
LINE
8
0
62
1
10
22.342
20
9.252
30
0
11
22.343
21
9.252
31
0
0
LINE
8
0
62
1
10
22.343
20
9.252
30
0
11
22.471
21
9.246
31
0
0
LINE
8
0
62
1
10
22.471
20
9.246
30
0
11
22.586
21
9.24
31
0
0
LINE
8
0
62
1
10
22.586
20
9.24
30
0
11
22.587
21
9.24
31
0
0
LINE
8
0
62
1
10
22.587
20
9.24
30
0
11
22.689
21
9.234
31
0
0
LINE
8
0
62
1
10
22.689
20
9.234
30
0
11
22.69
21
9.234
31
0
0
LINE
8
0
62
1
10
22.69
20
9.234
30
0
11
22.781
21
9.227
31
0
0
LINE
8
0
62
1
10
22.781
20
9.227
30
0
11
22.782
21
9.227
31
0
0
LINE
8
0
62
1
10
22.782
20
9.227
30
0
11
22.935
21
9.211
31
0
0
LINE
8
0
62
1
10
22.935
20
9.211
30
0
11
22.937
21
9.21
31
0
0
LINE
8
0
62
1
10
22.937
20
9.21
30
0
11
23.057
21
9.192
31
0
0
LINE
8
0
62
1
10
23.057
20
9.192
30
0
11
23.06
21
9.191
31
0
0
LINE
8
0
62
1
10
23.06
20
9.191
30
0
11
23.154
21
9.17
31
0
0
LINE
8
0
62
1
10
23.154
20
9.17
30
0
11
23.158
21
9.169
31
0
0
LINE
8
0
62
1
10
23.158
20
9.169
30
0
11
23.234
21
9.145
31
0
0
LINE
8
0
62
1
10
23.234
20
9.145
30
0
11
23.238
21
9.144
31
0
0
LINE
8
0
62
1
10
23.238
20
9.144
30
0
11
23.304
21
9.116
31
0
0
LINE
8
0
62
1
10
23.304
20
9.116
30
0
11
23.307
21
9.115
31
0
0
LINE
8
0
62
1
10
23.307
20
9.115
30
0
11
23.442
21
9.047
31
0
0
LINE
8
0
62
1
10
23.442
20
9.047
30
0
11
23.445
21
9.045
31
0
0
LINE
8
0
62
1
10
23.445
20
9.045
30
0
11
23.573
21
8.967
31
0
0
LINE
8
0
62
1
10
23.573
20
8.967
30
0
11
23.576
21
8.965
31
0
0
LINE
8
0
62
1
10
23.576
20
8.965
30
0
11
23.696
21
8.879
31
0
0
LINE
8
0
62
1
10
23.696
20
8.879
30
0
11
23.699
21
8.876
31
0
0
LINE
8
0
62
1
10
23.699
20
8.876
30
0
11
23.812
21
8.781
31
0
0
LINE
8
0
62
1
10
23.812
20
8.781
30
0
11
23.815
21
8.778
31
0
0
LINE
8
0
62
1
10
23.815
20
8.778
30
0
11
23.919
21
8.675
31
0
0
LINE
8
0
62
1
10
23.919
20
8.675
30
0
11
23.922
21
8.672
31
0
0
LINE
8
0
62
1
10
23.922
20
8.672
30
0
11
24.018
21
8.562
31
0
0
LINE
8
0
62
1
10
24.018
20
8.562
30
0
11
24.02
21
8.559
31
0
0
LINE
8
0
62
1
10
24.02
20
8.559
30
0
11
24.108
21
8.442
31
0
0
LINE
8
0
62
1
10
24.108
20
8.442
30
0
11
24.11
21
8.439
31
0
0
LINE
8
0
62
1
10
24.11
20
8.439
30
0
11
24.188
21
8.316
31
0
0
LINE
8
0
62
1
10
24.188
20
8.316
30
0
11
24.19
21
8.313
31
0
0
LINE
8
0
62
1
10
24.19
20
8.313
30
0
11
24.259
21
8.184
31
0
0
LINE
8
0
62
1
10
24.259
20
8.184
30
0
11
24.261
21
8.181
31
0
0
LINE
8
0
62
1
10
24.261
20
8.181
30
0
11
24.319
21
8.047
31
0
0
LINE
8
0
62
1
10
24.319
20
8.047
30
0
11
24.321
21
8.044
31
0
0
LINE
8
0
62
1
10
24.321
20
8.044
30
0
11
24.369
21
7.907
31
0
0
LINE
8
0
62
1
10
24.369
20
7.907
30
0
11
24.371
21
7.903
31
0
0
LINE
8
0
62
1
10
24.371
20
7.903
30
0
11
24.409
21
7.762
31
0
0
LINE
8
0
62
1
10
24.409
20
7.762
30
0
11
24.41
21
7.758
31
0
0
LINE
8
0
62
1
10
24.41
20
7.758
30
0
11
24.437
21
7.615
31
0
0
LINE
8
0
62
1
10
24.437
20
7.615
30
0
11
24.437
21
7.611
31
0
0
LINE
8
0
62
1
10
24.437
20
7.611
30
0
11
24.453
21
7.465
31
0
0
LINE
8
0
62
1
10
24.453
20
7.465
30
0
11
24.453
21
7.461
31
0
0
LINE
8
0
62
1
10
24.453
20
7.461
30
0
11
24.457
21
7.314
31
0
0
LINE
8
0
62
1
10
24.457
20
7.314
30
0
11
24.457
21
7.31
31
0
0
LINE
8
0
62
1
10
24.457
20
7.31
30
0
11
24.449
21
7.161
31
0
0
LINE
8
0
62
1
10
24.449
20
7.161
30
0
11
24.448
21
7.157
31
0
0
LINE
8
0
62
1
10
24.448
20
7.157
30
0
11
24.427
21
6.998
31
0
0
LINE
8
0
62
1
10
24.427
20
6.998
30
0
11
24.427
21
6.994
31
0
0
LINE
8
0
62
1
10
24.427
20
6.994
30
0
11
24.395
21
6.84
31
0
0
LINE
8
0
62
1
10
24.395
20
6.84
30
0
11
24.394
21
6.837
31
0
0
LINE
8
0
62
1
10
24.394
20
6.837
30
0
11
24.352
21
6.688
31
0
0
LINE
8
0
62
1
10
24.352
20
6.688
30
0
11
24.351
21
6.684
31
0
0
LINE
8
0
62
1
10
24.351
20
6.684
30
0
11
24.299
21
6.541
31
0
0
LINE
8
0
62
1
10
24.299
20
6.541
30
0
11
24.297
21
6.538
31
0
0
LINE
8
0
62
1
10
24.297
20
6.538
30
0
11
24.235
21
6.401
31
0
0
LINE
8
0
62
1
10
24.235
20
6.401
30
0
11
24.234
21
6.398
31
0
0
LINE
8
0
62
1
10
24.234
20
6.398
30
0
11
24.162
21
6.267
31
0
0
LINE
8
0
62
1
10
24.162
20
6.267
30
0
11
24.16
21
6.264
31
0
0
LINE
8
0
62
1
10
24.16
20
6.264
30
0
11
24.08
21
6.141
31
0
0
LINE
8
0
62
1
10
24.08
20
6.141
30
0
11
24.077
21
6.138
31
0
0
LINE
8
0
62
1
10
24.077
20
6.138
30
0
11
23.988
21
6.021
31
0
0
LINE
8
0
62
1
10
23.988
20
6.021
30
0
11
23.985
21
6.018
31
0
0
LINE
8
0
62
1
10
23.985
20
6.018
30
0
11
23.887
21
5.91
31
0
0
LINE
8
0
62
1
10
23.887
20
5.91
30
0
11
23.884
21
5.907
31
0
0
LINE
8
0
62
1
10
23.884
20
5.907
30
0
11
23.777
21
5.806
31
0
0
LINE
8
0
62
1
10
23.777
20
5.806
30
0
11
23.774
21
5.803
31
0
0
LINE
8
0
62
1
10
23.774
20
5.803
30
0
11
23.66
21
5.711
31
0
0
LINE
8
0
62
1
10
23.66
20
5.711
30
0
11
23.656
21
5.708
31
0
0
LINE
8
0
62
1
10
23.656
20
5.708
30
0
11
23.534
21
5.624
31
0
0
LINE
8
0
62
1
10
23.534
20
5.624
30
0
11
23.531
21
5.622
31
0
0
LINE
8
0
62
1
10
23.531
20
5.622
30
0
11
23.4
21
5.547
31
0
0
LINE
8
0
62
1
10
23.4
20
5.547
30
0
11
23.397
21
5.545
31
0
0
LINE
8
0
62
1
10
23.397
20
5.545
30
0
11
23.259
21
5.479
31
0
0
LINE
8
0
62
1
10
23.259
20
5.479
30
0
11
23.256
21
5.478
31
0
0
LINE
8
0
62
1
10
23.256
20
5.478
30
0
11
23.112
21
5.421
31
0
0
LINE
8
0
62
1
10
23.112
20
5.421
30
0
11
23.108
21
5.42
31
0
0
LINE
8
0
62
1
10
23.108
20
5.42
30
0
11
22.957
21
5.373
31
0
0
LINE
8
0
62
1
10
22.957
20
5.373
30
0
11
22.952
21
5.372
31
0
0
LINE
8
0
62
1
10
22.952
20
5.372
30
0
11
22.798
21
5.341
31
0
0
LINE
8
0
62
1
10
22.798
20
5.341
30
0
11
22.792
21
5.34
31
0
0
LINE
8
0
62
1
10
22.792
20
5.34
30
0
11
22.624
21
5.324
31
0
0
LINE
8
0
62
1
10
22.624
20
5.324
30
0
11
22.62
21
5.323
31
0
0
LINE
8
0
62
1
10
22.62
20
5.323
30
0
11
22.443
21
5.322
31
0
0
LINE
8
0
62
1
10
22.443
20
5.322
30
0
11
22.439
21
5.322
31
0
0
LINE
8
0
62
1
10
22.439
20
5.322
30
0
11
22.259
21
5.335
31
0
0
LINE
8
0
62
1
10
22.259
20
5.335
30
0
11
22.255
21
5.335
31
0
0
LINE
8
0
62
1
10
22.255
20
5.335
30
0
11
22.076
21
5.361
31
0
0
LINE
8
0
62
1
10
22.076
20
5.361
30
0
11
22.072
21
5.362
31
0
0
LINE
8
0
62
1
10
22.072
20
5.362
30
0
11
21.9
21
5.402
31
0
0
LINE
8
0
62
1
10
21.9
20
5.402
30
0
11
21.896
21
5.403
31
0
0
LINE
8
0
62
1
10
21.896
20
5.403
30
0
11
21.735
21
5.455
31
0
0
LINE
8
0
62
1
10
21.735
20
5.455
30
0
11
21.73
21
5.457
31
0
0
LINE
8
0
62
1
10
21.73
20
5.457
30
0
11
21.585
21
5.521
31
0
0
LINE
8
0
62
1
10
21.585
20
5.521
30
0
11
21.58
21
5.523
31
0
0
LINE
8
0
62
1
10
21.58
20
5.523
30
0
11
21.476
21
5.584
31
0
0
LINE
8
0
62
1
10
21.476
20
5.584
30
0
11
21.472
21
5.586
31
0
0
LINE
8
0
62
1
10
21.472
20
5.586
30
0
11
21.369
21
5.659
31
0
0
LINE
8
0
62
1
10
21.369
20
5.659
30
0
11
21.365
21
5.662
31
0
0
LINE
8
0
62
1
10
21.365
20
5.662
30
0
11
21.166
21
5.838
31
0
0
LINE
8
0
62
1
10
21.166
20
5.838
30
0
11
21.162
21
5.842
31
0
0
LINE
8
0
62
1
10
21.162
20
5.842
30
0
11
20.977
21
6.051
31
0
0
LINE
8
0
62
1
10
20.977
20
6.051
30
0
11
20.974
21
6.055
31
0
0
LINE
8
0
62
1
10
20.974
20
6.055
30
0
11
20.81
21
6.288
31
0
0
LINE
8
0
62
1
10
20.81
20
6.288
30
0
11
20.807
21
6.292
31
0
0
LINE
8
0
62
1
10
20.807
20
6.292
30
0
11
20.67
21
6.539
31
0
0
LINE
8
0
62
1
10
20.67
20
6.539
30
0
11
20.667
21
6.544
31
0
0
LINE
8
0
62
1
10
20.667
20
6.544
30
0
11
20.561
21
6.796
31
0
0
LINE
8
0
62
1
10
20.561
20
6.796
30
0
11
20.56
21
6.8
31
0
0
LINE
8
0
62
1
10
20.56
20
6.8
30
0
11
20.521
21
6.925
31
0
0
LINE
8
0
62
1
10
20.521
20
6.925
30
0
11
20.52
21
6.929
31
0
0
LINE
8
0
62
1
10
20.52
20
6.929
30
0
11
20.491
21
7.052
31
0
0
LINE
8
0
62
1
10
20.491
20
7.052
30
0
11
20.49
21
7.056
31
0
0
LINE
8
0
62
1
10
20.49
20
7.056
30
0
11
20.473
21
7.175
31
0
0
LINE
8
0
62
1
10
20.473
20
7.175
30
0
11
20.472
21
7.18
31
0
0
LINE
8
0
62
1
10
20.472
20
7.18
30
0
11
20.466
21
7.292
31
0
0
LINE
8
0
62
1
10
20.466
20
7.292
30
0
11
20.451
21
7.39
31
0
0
LINE
8
0
62
1
10
20.451
20
7.39
30
0
11
20.411
21
7.476
31
0
0
LINE
8
0
62
1
10
20.411
20
7.476
30
0
11
20.394
21
7.497
31
0
0
LINE
8
0
62
1
10
18.268
20
11.878
30
0
11
18.398
21
11.971
31
0
0
LINE
8
0
62
1
10
18.398
20
11.971
30
0
11
18.546
21
12.083
31
0
0
LINE
8
0
62
1
10
18.546
20
12.083
30
0
11
18.762
21
12.267
31
0
0
LINE
8
0
62
1
10
18.762
20
12.267
30
0
11
18.951
21
12.474
31
0
0
LINE
8
0
62
1
10
18.951
20
12.474
30
0
11
19.038
21
12.591
31
0
0
LINE
8
0
62
1
10
19.038
20
12.591
30
0
11
19.122
21
12.719
31
0
0
LINE
8
0
62
1
10
19.122
20
12.719
30
0
11
19.206
21
12.861
31
0
0
LINE
8
0
62
1
10
19.206
20
12.861
30
0
11
19.289
21
13.018
31
0
0
LINE
8
0
62
1
10
19.289
20
13.018
30
0
11
19.381
21
13.201
31
0
0
LINE
8
0
62
1
10
19.381
20
13.201
30
0
11
19.452
21
13.359
31
0
0
LINE
8
0
62
1
10
19.452
20
13.359
30
0
11
19.506
21
13.499
31
0
0
LINE
8
0
62
1
10
19.506
20
13.499
30
0
11
19.545
21
13.63
31
0
0
LINE
8
0
62
1
10
19.545
20
13.63
30
0
11
19.571
21
13.762
31
0
0
LINE
8
0
62
1
10
19.571
20
13.762
30
0
11
19.588
21
13.905
31
0
0
LINE
8
0
62
1
10
19.588
20
13.905
30
0
11
19.596
21
14.069
31
0
0
LINE
8
0
62
1
10
19.596
20
14.069
30
0
11
19.597
21
14.261
31
0
0
LINE
8
0
62
1
10
19.597
20
14.261
30
0
11
19.591
21
14.466
31
0
0
LINE
8
0
62
1
10
19.591
20
14.466
30
0
11
19.572
21
14.666
31
0
0
LINE
8
0
62
1
10
19.572
20
14.666
30
0
11
19.541
21
14.859
31
0
0
LINE
8
0
62
1
10
19.541
20
14.859
30
0
11
19.499
21
15.046
31
0
0
LINE
8
0
62
1
10
19.499
20
15.046
30
0
11
19.445
21
15.226
31
0
0
LINE
8
0
62
1
10
19.445
20
15.226
30
0
11
19.379
21
15.4
31
0
0
LINE
8
0
62
1
10
19.379
20
15.4
30
0
11
19.302
21
15.567
31
0
0
LINE
8
0
62
1
10
19.302
20
15.567
30
0
11
19.214
21
15.727
31
0
0
LINE
8
0
62
1
10
19.214
20
15.727
30
0
11
19.115
21
15.879
31
0
0
LINE
8
0
62
1
10
19.115
20
15.879
30
0
11
19.005
21
16.024
31
0
0
LINE
8
0
62
1
10
19.005
20
16.024
30
0
11
18.885
21
16.161
31
0
0
LINE
8
0
62
1
10
18.885
20
16.161
30
0
11
18.754
21
16.289
31
0
0
LINE
8
0
62
1
10
18.754
20
16.289
30
0
11
18.613
21
16.409
31
0
0
LINE
8
0
62
1
10
18.613
20
16.409
30
0
11
18.462
21
16.52
31
0
0
LINE
8
0
62
1
10
18.462
20
16.52
30
0
11
18.3
21
16.622
31
0
0
LINE
8
0
62
1
10
18.3
20
16.622
30
0
11
18.129
21
16.715
31
0
0
LINE
8
0
62
1
10
18.129
20
16.715
30
0
11
17.864
21
16.836
31
0
0
LINE
8
0
62
1
10
17.864
20
16.836
30
0
11
17.606
21
16.93
31
0
0
LINE
8
0
62
1
10
17.606
20
16.93
30
0
11
17.354
21
16.998
31
0
0
LINE
8
0
62
1
10
17.354
20
16.998
30
0
11
17.106
21
17.04
31
0
0
LINE
8
0
62
1
10
17.106
20
17.04
30
0
11
16.86
21
17.056
31
0
0
LINE
8
0
62
1
10
16.86
20
17.056
30
0
11
16.615
21
17.047
31
0
0
LINE
8
0
62
1
10
16.615
20
17.047
30
0
11
16.369
21
17.012
31
0
0
LINE
8
0
62
1
10
16.369
20
17.012
30
0
11
16.121
21
16.952
31
0
0
LINE
8
0
62
1
10
16.121
20
16.952
30
0
11
15.905
21
16.882
31
0
0
LINE
8
0
62
1
10
15.905
20
16.882
30
0
11
15.698
21
16.799
31
0
0
LINE
8
0
62
1
10
15.698
20
16.799
30
0
11
15.503
21
16.704
31
0
0
LINE
8
0
62
1
10
15.503
20
16.704
30
0
11
15.317
21
16.598
31
0
0
LINE
8
0
62
1
10
15.317
20
16.598
30
0
11
15.143
21
16.481
31
0
0
LINE
8
0
62
1
10
15.143
20
16.481
30
0
11
14.981
21
16.354
31
0
0
LINE
8
0
62
1
10
14.981
20
16.354
30
0
11
14.83
21
16.217
31
0
0
LINE
8
0
62
1
10
14.83
20
16.217
30
0
11
14.692
21
16.07
31
0
0
LINE
8
0
62
1
10
14.692
20
16.07
30
0
11
14.566
21
15.914
31
0
0
LINE
8
0
62
1
10
14.566
20
15.914
30
0
11
14.452
21
15.749
31
0
0
LINE
8
0
62
1
10
14.452
20
15.749
30
0
11
14.352
21
15.576
31
0
0
LINE
8
0
62
1
10
14.352
20
15.576
30
0
11
14.266
21
15.394
31
0
0
LINE
8
0
62
1
10
14.266
20
15.394
30
0
11
14.193
21
15.206
31
0
0
LINE
8
0
62
1
10
14.193
20
15.206
30
0
11
14.135
21
15.01
31
0
0
LINE
8
0
62
1
10
14.135
20
15.01
30
0
11
14.092
21
14.807
31
0
0
LINE
8
0
62
1
10
14.092
20
14.807
30
0
11
14.063
21
14.598
31
0
0
LINE
8
0
62
1
10
14.063
20
14.598
30
0
11
14.049
21
14.437
31
0
0
LINE
8
0
62
1
10
14.049
20
14.437
30
0
11
14.042
21
14.312
31
0
0
LINE
8
0
62
1
10
14.042
20
14.312
30
0
11
14.043
21
14.216
31
0
0
LINE
8
0
62
1
10
14.043
20
14.216
30
0
11
14.052
21
14.146
31
0
0
LINE
8
0
62
1
10
14.052
20
14.146
30
0
11
14.071
21
14.095
31
0
0
LINE
8
0
62
1
10
14.071
20
14.095
30
0
11
14.099
21
14.053
31
0
0
LINE
8
0
62
1
10
14.099
20
14.053
30
0
11
14.142
21
14.011
31
0
0
LINE
8
0
62
1
10
14.142
20
14.011
30
0
11
14.202
21
13.966
31
0
0
LINE
8
0
62
1
10
14.202
20
13.966
30
0
11
14.287
21
13.91
31
0
0
LINE
8
0
62
1
10
14.287
20
13.91
30
0
11
14.367
21
13.865
31
0
0
LINE
8
0
62
1
10
14.367
20
13.865
30
0
11
14.429
21
13.836
31
0
0
LINE
8
0
62
1
10
14.429
20
13.836
30
0
11
14.456
21
13.828
31
0
0
LINE
8
0
62
1
10
14.456
20
13.828
30
0
11
14.505
21
13.84
31
0
0
LINE
8
0
62
1
10
14.505
20
13.84
30
0
11
14.567
21
13.881
31
0
0
LINE
8
0
62
1
10
14.567
20
13.881
30
0
11
14.633
21
13.946
31
0
0
LINE
8
0
62
1
10
14.633
20
13.946
30
0
11
14.698
21
14.032
31
0
0
LINE
8
0
62
1
10
14.698
20
14.032
30
0
11
14.755
21
14.13
31
0
0
LINE
8
0
62
1
10
14.755
20
14.13
30
0
11
14.801
21
14.235
31
0
0
LINE
8
0
62
1
10
14.801
20
14.235
30
0
11
14.831
21
14.338
31
0
0
LINE
8
0
62
1
10
14.831
20
14.338
30
0
11
14.842
21
14.439
31
0
0
LINE
8
0
62
1
10
14.842
20
14.439
30
0
11
14.853
21
14.583
31
0
0
LINE
8
0
62
1
10
14.853
20
14.583
30
0
11
14.853
21
14.589
31
0
0
LINE
8
0
62
1
10
14.853
20
14.589
30
0
11
14.882
21
14.735
31
0
0
LINE
8
0
62
1
10
14.882
20
14.735
30
0
11
14.883
21
14.74
31
0
0
LINE
8
0
62
1
10
14.883
20
14.74
30
0
11
14.928
21
14.885
31
0
0
LINE
8
0
62
1
10
14.928
20
14.885
30
0
11
14.929
21
14.89
31
0
0
LINE
8
0
62
1
10
14.929
20
14.89
30
0
11
14.99
21
15.033
31
0
0
LINE
8
0
62
1
10
14.99
20
15.033
30
0
11
14.992
21
15.037
31
0
0
LINE
8
0
62
1
10
14.992
20
15.037
30
0
11
15.066
21
15.177
31
0
0
LINE
8
0
62
1
10
15.066
20
15.177
30
0
11
15.069
21
15.181
31
0
0
LINE
8
0
62
1
10
15.069
20
15.181
30
0
11
15.157
21
15.317
31
0
0
LINE
8
0
62
1
10
15.157
20
15.317
30
0
11
15.159
21
15.321
31
0
0
LINE
8
0
62
1
10
15.159
20
15.321
30
0
11
15.259
21
15.452
31
0
0
LINE
8
0
62
1
10
15.259
20
15.452
30
0
11
15.262
21
15.455
31
0
0
LINE
8
0
62
1
10
15.262
20
15.455
30
0
11
15.373
21
15.579
31
0
0
LINE
8
0
62
1
10
15.373
20
15.579
30
0
11
15.375
21
15.582
31
0
0
LINE
8
0
62
1
10
15.375
20
15.582
30
0
11
15.497
21
15.699
31
0
0
LINE
8
0
62
1
10
15.497
20
15.699
30
0
11
15.499
21
15.702
31
0
0
LINE
8
0
62
1
10
15.499
20
15.702
30
0
11
15.629
21
15.81
31
0
0
LINE
8
0
62
1
10
15.629
20
15.81
30
0
11
15.632
21
15.813
31
0
0
LINE
8
0
62
1
10
15.632
20
15.813
30
0
11
15.77
21
15.911
31
0
0
LINE
8
0
62
1
10
15.77
20
15.911
30
0
11
15.773
21
15.913
31
0
0
LINE
8
0
62
1
10
15.773
20
15.913
30
0
11
15.918
21
16.001
31
0
0
LINE
8
0
62
1
10
15.918
20
16.001
30
0
11
15.921
21
16.003
31
0
0
LINE
8
0
62
1
10
15.921
20
16.003
30
0
11
16.071
21
16.079
31
0
0
LINE
8
0
62
1
10
16.071
20
16.079
30
0
11
16.075
21
16.08
31
0
0
LINE
8
0
62
1
10
16.075
20
16.08
30
0
11
16.229
21
16.143
31
0
0
LINE
8
0
62
1
10
16.229
20
16.143
30
0
11
16.233
21
16.144
31
0
0
LINE
8
0
62
1
10
16.233
20
16.144
30
0
11
16.391
21
16.192
31
0
0
LINE
8
0
62
1
10
16.391
20
16.192
30
0
11
16.396
21
16.193
31
0
0
LINE
8
0
62
1
10
16.396
20
16.193
30
0
11
16.555
21
16.226
31
0
0
LINE
8
0
62
1
10
16.555
20
16.226
30
0
11
16.561
21
16.226
31
0
0
LINE
8
0
62
1
10
16.561
20
16.226
30
0
11
16.8
21
16.246
31
0
0
LINE
8
0
62
1
10
16.8
20
16.246
30
0
11
16.806
21
16.246
31
0
0
LINE
8
0
62
1
10
16.806
20
16.246
30
0
11
17.04
21
16.234
31
0
0
LINE
8
0
62
1
10
17.04
20
16.234
30
0
11
17.047
21
16.233
31
0
0
LINE
8
0
62
1
10
17.047
20
16.233
30
0
11
17.274
21
16.191
31
0
0
LINE
8
0
62
1
10
17.274
20
16.191
30
0
11
17.28
21
16.19
31
0
0
LINE
8
0
62
1
10
17.28
20
16.19
30
0
11
17.498
21
16.121
31
0
0
LINE
8
0
62
1
10
17.498
20
16.121
30
0
11
17.504
21
16.119
31
0
0
LINE
8
0
62
1
10
17.504
20
16.119
30
0
11
17.711
21
16.024
31
0
0
LINE
8
0
62
1
10
17.711
20
16.024
30
0
11
17.716
21
16.022
31
0
0
LINE
8
0
62
1
10
17.716
20
16.022
30
0
11
17.912
21
15.904
31
0
0
LINE
8
0
62
1
10
17.912
20
15.904
30
0
11
17.916
21
15.901
31
0
0
LINE
8
0
62
1
10
17.916
20
15.901
30
0
11
18.097
21
15.762
31
0
0
LINE
8
0
62
1
10
18.097
20
15.762
30
0
11
18.101
21
15.759
31
0
0
LINE
8
0
62
1
10
18.101
20
15.759
30
0
11
18.265
21
15.601
31
0
0
LINE
8
0
62
1
10
18.265
20
15.601
30
0
11
18.268
21
15.597
31
0
0
LINE
8
0
62
1
10
18.268
20
15.597
30
0
11
18.414
21
15.423
31
0
0
LINE
8
0
62
1
10
18.414
20
15.423
30
0
11
18.417
21
15.419
31
0
0
LINE
8
0
62
1
10
18.417
20
15.419
30
0
11
18.542
21
15.23
31
0
0
LINE
8
0
62
1
10
18.542
20
15.23
30
0
11
18.545
21
15.225
31
0
0
LINE
8
0
62
1
10
18.545
20
15.225
30
0
11
18.647
21
15.024
31
0
0
LINE
8
0
62
1
10
18.647
20
15.024
30
0
11
18.649
21
15.018
31
0
0
LINE
8
0
62
1
10
18.649
20
15.018
30
0
11
18.727
21
14.807
31
0
0
LINE
8
0
62
1
10
18.727
20
14.807
30
0
11
18.728
21
14.801
31
0
0
LINE
8
0
62
1
10
18.728
20
14.801
30
0
11
18.779
21
14.581
31
0
0
LINE
8
0
62
1
10
18.779
20
14.581
30
0
11
18.78
21
14.575
31
0
0
LINE
8
0
62
1
10
18.78
20
14.575
30
0
11
18.803
21
14.349
31
0
0
LINE
8
0
62
1
10
18.803
20
14.349
30
0
11
18.803
21
14.342
31
0
0
LINE
8
0
62
1
10
18.803
20
14.342
30
0
11
18.795
21
14.112
31
0
0
LINE
8
0
62
1
10
18.795
20
14.112
30
0
11
18.794
21
14.105
31
0
0
LINE
8
0
62
1
10
18.794
20
14.105
30
0
11
18.754
21
13.874
31
0
0
LINE
8
0
62
1
10
18.754
20
13.874
30
0
11
18.753
21
13.868
31
0
0
LINE
8
0
62
1
10
18.753
20
13.868
30
0
11
18.685
21
13.638
31
0
0
LINE
8
0
62
1
10
18.685
20
13.638
30
0
11
18.684
21
13.634
31
0
0
LINE
8
0
62
1
10
18.684
20
13.634
30
0
11
18.602
21
13.425
31
0
0
LINE
8
0
62
1
10
18.602
20
13.425
30
0
11
18.6
21
13.42
31
0
0
LINE
8
0
62
1
10
18.6
20
13.42
30
0
11
18.501
21
13.23
31
0
0
LINE
8
0
62
1
10
18.501
20
13.23
30
0
11
18.498
21
13.225
31
0
0
LINE
8
0
62
1
10
18.498
20
13.225
30
0
11
18.383
21
13.055
31
0
0
LINE
8
0
62
1
10
18.383
20
13.055
30
0
11
18.379
21
13.05
31
0
0
LINE
8
0
62
1
10
18.379
20
13.05
30
0
11
18.246
21
12.897
31
0
0
LINE
8
0
62
1
10
18.246
20
12.897
30
0
11
18.241
21
12.892
31
0
0
LINE
8
0
62
1
10
18.241
20
12.892
30
0
11
18.089
21
12.755
31
0
0
LINE
8
0
62
1
10
18.089
20
12.755
30
0
11
18.085
21
12.752
31
0
0
LINE
8
0
62
1
10
18.085
20
12.752
30
0
11
17.913
21
12.63
31
0
0
LINE
8
0
62
1
10
17.913
20
12.63
30
0
11
17.908
21
12.627
31
0
0
LINE
8
0
62
1
10
17.908
20
12.627
30
0
11
17.715
21
12.519
31
0
0
LINE
8
0
62
1
10
17.715
20
12.519
30
0
11
17.713
21
12.518
31
0
0
LINE
8
0
62
1
10
17.713
20
12.518
30
0
11
17.236
21
12.28
31
0
0
LINE
8
0
62
1
10
17.236
20
12.28
30
0
11
17.225
21
12.276
31
0
0
LINE
8
0
62
1
10
17.225
20
12.276
30
0
11
17.213
21
12.275
31
0
0
LINE
8
0
62
1
10
17.213
20
12.275
30
0
11
5.488
21
12.275
31
0
0
LINE
8
0
62
1
10
5.488
20
12.275
30
0
11
5.369
21
12.106
31
0
0
LINE
8
0
62
1
10
5.369
20
12.106
30
0
11
5.329
21
12.04
31
0
0
LINE
8
0
62
1
10
5.329
20
12.04
30
0
11
5.304
21
11.976
31
0
0
LINE
8
0
62
1
10
5.304
20
11.976
30
0
11
5.292
21
11.913
31
0
0
LINE
8
0
62
1
10
5.292
20
11.913
30
0
11
5.292
21
11.849
31
0
0
LINE
8
0
62
1
10
5.292
20
11.849
30
0
11
5.305
21
11.783
31
0
0
LINE
8
0
62
1
10
5.305
20
11.783
30
0
11
5.331
21
11.713
31
0
0
LINE
8
0
62
1
10
5.331
20
11.713
30
0
11
5.371
21
11.639
31
0
0
LINE
8
0
62
1
10
5.371
20
11.639
30
0
11
5.42
21
11.569
31
0
0
LINE
8
0
62
1
10
5.42
20
11.569
30
0
11
5.432
21
11.562
31
0
0
LINE
8
0
62
1
10
5.432
20
11.562
30
0
11
5.483
21
11.549
31
0
0
LINE
8
0
62
1
10
5.483
20
11.549
30
0
11
5.574
21
11.537
31
0
0
LINE
8
0
62
1
10
5.574
20
11.537
30
0
11
5.704
21
11.525
31
0
0
LINE
8
0
62
1
10
5.704
20
11.525
30
0
11
5.785
21
11.52
31
0
0
LINE
8
0
62
1
10
5.785
20
11.52
30
0
11
5.877
21
11.515
31
0
0
LINE
8
0
62
1
10
5.877
20
11.515
30
0
11
5.979
21
11.51
31
0
0
LINE
8
0
62
1
10
5.979
20
11.51
30
0
11
6.094
21
11.506
31
0
0
LINE
8
0
62
1
10
6.094
20
11.506
30
0
11
6.22
21
11.502
31
0
0
LINE
8
0
62
1
10
6.22
20
11.502
30
0
11
6.358
21
11.498
31
0
0
LINE
8
0
62
1
10
6.358
20
11.498
30
0
11
6.508
21
11.494
31
0
0
LINE
8
0
62
1
10
6.508
20
11.494
30
0
11
6.672
21
11.491
31
0
0
LINE
8
0
62
1
10
6.672
20
11.491
30
0
11
6.849
21
11.488
31
0
0
LINE
8
0
62
1
10
6.849
20
11.488
30
0
11
7.039
21
11.485
31
0
0
LINE
8
0
62
1
10
7.039
20
11.485
30
0
11
7.244
21
11.482
31
0
0
LINE
8
0
62
1
10
7.244
20
11.482
30
0
11
7.463
21
11.48
31
0
0
LINE
8
0
62
1
10
7.463
20
11.48
30
0
11
7.697
21
11.478
31
0
0
LINE
8
0
62
1
10
7.697
20
11.478
30
0
11
7.946
21
11.476
31
0
0
LINE
8
0
62
1
10
7.946
20
11.476
30
0
11
8.21
21
11.474
31
0
0
LINE
8
0
62
1
10
8.21
20
11.474
30
0
11
8.49
21
11.472
31
0
0
LINE
8
0
62
1
10
8.49
20
11.472
30
0
11
8.787
21
11.471
31
0
0
LINE
8
0
62
1
10
8.787
20
11.471
30
0
11
9.1
21
11.47
31
0
0
LINE
8
0
62
1
10
9.1
20
11.47
30
0
11
9.43
21
11.469
31
0
0
LINE
8
0
62
1
10
9.43
20
11.469
30
0
11
9.778
21
11.469
31
0
0
LINE
8
0
62
1
10
9.778
20
11.469
30
0
11
10.144
21
11.468
31
0
0
LINE
8
0
62
1
10
10.144
20
11.468
30
0
11
10.527
21
11.467
31
0
0
LINE
8
0
62
1
10
10.527
20
11.467
30
0
11
10.93
21
11.467
31
0
0
LINE
8
0
62
1
10
10.93
20
11.467
30
0
11
11.351
21
11.467
31
0
0
LINE
8
0
62
1
10
11.351
20
11.467
30
0
11
11.946
21
11.467
31
0
0
LINE
8
0
62
1
10
11.946
20
11.467
30
0
11
12.503
21
11.467
31
0
0
LINE
8
0
62
1
10
12.503
20
11.467
30
0
11
13.023
21
11.467
31
0
0
LINE
8
0
62
1
10
13.023
20
11.467
30
0
11
13.508
21
11.468
31
0
0
LINE
8
0
62
1
10
13.508
20
11.468
30
0
11
13.959
21
11.469
31
0
0
LINE
8
0
62
1
10
13.959
20
11.469
30
0
11
14.378
21
11.47
31
0
0
LINE
8
0
62
1
10
14.378
20
11.47
30
0
11
14.766
21
11.472
31
0
0
LINE
8
0
62
1
10
14.766
20
11.472
30
0
11
15.125
21
11.475
31
0
0
LINE
8
0
62
1
10
15.125
20
11.475
30
0
11
15.455
21
11.478
31
0
0
LINE
8
0
62
1
10
15.455
20
11.478
30
0
11
15.759
21
11.483
31
0
0
LINE
8
0
62
1
10
15.759
20
11.483
30
0
11
16.037
21
11.489
31
0
0
LINE
8
0
62
1
10
16.037
20
11.489
30
0
11
16.292
21
11.496
31
0
0
LINE
8
0
62
1
10
16.292
20
11.496
30
0
11
16.524
21
11.505
31
0
0
LINE
8
0
62
1
10
16.524
20
11.505
30
0
11
16.734
21
11.515
31
0
0
LINE
8
0
62
1
10
16.734
20
11.515
30
0
11
16.926
21
11.526
31
0
0
LINE
8
0
62
1
10
16.926
20
11.526
30
0
11
17.098
21
11.54
31
0
0
LINE
8
0
62
1
10
17.098
20
11.54
30
0
11
17.254
21
11.555
31
0
0
LINE
8
0
62
1
10
17.254
20
11.555
30
0
11
17.395
21
11.572
31
0
0
LINE
8
0
62
1
10
17.395
20
11.572
30
0
11
17.521
21
11.591
31
0
0
LINE
8
0
62
1
10
17.521
20
11.591
30
0
11
17.634
21
11.612
31
0
0
LINE
8
0
62
1
10
17.634
20
11.612
30
0
11
17.83
21
11.662
31
0
0
LINE
8
0
62
1
10
17.83
20
11.662
30
0
11
17.991
21
11.721
31
0
0
LINE
8
0
62
1
10
17.991
20
11.721
30
0
11
18.132
21
11.791
31
0
0
LINE
8
0
62
1
10
18.132
20
11.791
30
0
11
18.263
21
11.874
31
0
0
LINE
8
0
62
1
10
18.263
20
11.874
30
0
11
18.268
21
11.878
31
0
0
LINE
8
0
62
1
10
20.062
20
28.524
30
0
11
19.786
21
28.596
31
0
0
LINE
8
0
62
1
10
19.786
20
28.596
30
0
11
19.501
21
28.657
31
0
0
LINE
8
0
62
1
10
19.501
20
28.657
30
0
11
19.214
21
28.707
31
0
0
LINE
8
0
62
1
10
19.214
20
28.707
30
0
11
18.926
21
28.745
31
0
0
LINE
8
0
62
1
10
18.926
20
28.745
30
0
11
18.635
21
28.771
31
0
0
LINE
8
0
62
1
10
18.635
20
28.771
30
0
11
18.344
21
28.784
31
0
0
LINE
8
0
62
1
10
18.344
20
28.784
30
0
11
18.051
21
28.785
31
0
0
LINE
8
0
62
1
10
18.051
20
28.785
30
0
11
17.758
21
28.774
31
0
0
LINE
8
0
62
1
10
17.758
20
28.774
30
0
11
17.466
21
28.75
31
0
0
LINE
8
0
62
1
10
17.466
20
28.75
30
0
11
17.173
21
28.713
31
0
0
LINE
8
0
62
1
10
17.173
20
28.713
30
0
11
16.881
21
28.662
31
0
0
LINE
8
0
62
1
10
16.881
20
28.662
30
0
11
16.49
21
28.576
31
0
0
LINE
8
0
62
1
10
16.49
20
28.576
30
0
11
16.107
21
28.47
31
0
0
LINE
8
0
62
1
10
16.107
20
28.47
30
0
11
15.733
21
28.347
31
0
0
LINE
8
0
62
1
10
15.733
20
28.347
30
0
11
15.368
21
28.206
31
0
0
LINE
8
0
62
1
10
15.368
20
28.206
30
0
11
15.013
21
28.047
31
0
0
LINE
8
0
62
1
10
15.013
20
28.047
30
0
11
14.668
21
27.872
31
0
0
LINE
8
0
62
1
10
14.668
20
27.872
30
0
11
14.335
21
27.681
31
0
0
LINE
8
0
62
1
10
14.335
20
27.681
30
0
11
14.014
21
27.474
31
0
0
LINE
8
0
62
1
10
14.014
20
27.474
30
0
11
13.706
21
27.252
31
0
0
LINE
8
0
62
1
10
13.706
20
27.252
30
0
11
13.411
21
27.015
31
0
0
LINE
8
0
62
1
10
13.411
20
27.015
30
0
11
13.132
21
26.764
31
0
0
LINE
8
0
62
1
10
13.132
20
26.764
30
0
11
12.867
21
26.5
31
0
0
LINE
8
0
62
1
10
12.867
20
26.5
30
0
11
12.618
21
26.223
31
0
0
LINE
8
0
62
1
10
12.618
20
26.223
30
0
11
12.386
21
25.933
31
0
0
LINE
8
0
62
1
10
12.386
20
25.933
30
0
11
12.172
21
25.631
31
0
0
LINE
8
0
62
1
10
12.172
20
25.631
30
0
11
11.975
21
25.318
31
0
0
LINE
8
0
62
1
10
11.975
20
25.318
30
0
11
11.747
21
24.928
31
0
0
LINE
8
0
62
1
10
11.747
20
24.928
30
0
11
11.735
21
24.914
31
0
0
LINE
8
0
62
1
10
11.735
20
24.914
30
0
11
11.719
21
24.906
31
0
0
LINE
8
0
62
1
10
11.719
20
24.906
30
0
11
11.701
21
24.903
31
0
0
LINE
8
0
62
1
10
11.701
20
24.903
30
0
11
11.683
21
24.908
31
0
0
LINE
8
0
62
1
10
11.683
20
24.908
30
0
11
11.184
21
25.137
31
0
0
LINE
8
0
62
1
10
11.184
20
25.137
30
0
11
11
21
25.216
31
0
0
LINE
8
0
62
1
10
11
20
25.216
30
0
11
10.815
21
25.284
31
0
0
LINE
8
0
62
1
10
10.815
20
25.284
30
0
11
10.439
21
25.393
31
0
0
LINE
8
0
62
1
10
10.439
20
25.393
30
0
11
10.06
21
25.465
31
0
0
LINE
8
0
62
1
10
10.06
20
25.465
30
0
11
9.681
21
25.499
31
0
0
LINE
8
0
62
1
10
9.681
20
25.499
30
0
11
9.304
21
25.497
31
0
0
LINE
8
0
62
1
10
9.304
20
25.497
30
0
11
8.93
21
25.459
31
0
0
LINE
8
0
62
1
10
8.93
20
25.459
30
0
11
8.564
21
25.388
31
0
0
LINE
8
0
62
1
10
8.564
20
25.388
30
0
11
8.207
21
25.283
31
0
0
LINE
8
0
62
1
10
8.207
20
25.283
30
0
11
7.862
21
25.145
31
0
0
LINE
8
0
62
1
10
7.862
20
25.145
30
0
11
7.531
21
24.976
31
0
0
LINE
8
0
62
1
10
7.531
20
24.976
30
0
11
7.218
21
24.776
31
0
0
LINE
8
0
62
1
10
7.218
20
24.776
30
0
11
6.924
21
24.546
31
0
0
LINE
8
0
62
1
10
6.924
20
24.546
30
0
11
6.652
21
24.286
31
0
0
LINE
8
0
62
1
10
6.652
20
24.286
30
0
11
6.404
21
23.999
31
0
0
LINE
8
0
62
1
10
6.404
20
23.999
30
0
11
6.184
21
23.684
31
0
0
LINE
8
0
62
1
10
6.184
20
23.684
30
0
11
6.085
21
23.517
31
0
0
LINE
8
0
62
1
10
6.085
20
23.517
30
0
11
5.994
21
23.344
31
0
0
LINE
8
0
62
1
10
5.994
20
23.344
30
0
11
5.856
21
23.041
31
0
0
LINE
8
0
62
1
10
5.856
20
23.041
30
0
11
5.744
21
22.737
31
0
0
LINE
8
0
62
1
10
5.744
20
22.737
30
0
11
5.655
21
22.434
31
0
0
LINE
8
0
62
1
10
5.655
20
22.434
30
0
11
5.591
21
22.134
31
0
0
LINE
8
0
62
1
10
5.591
20
22.134
30
0
11
5.552
21
21.838
31
0
0
LINE
8
0
62
1
10
5.552
20
21.838
30
0
11
5.537
21
21.547
31
0
0
LINE
8
0
62
1
10
5.537
20
21.547
30
0
11
5.549
21
21.265
31
0
0
LINE
8
0
62
1
10
5.549
20
21.265
30
0
11
5.585
21
20.99
31
0
0
LINE
8
0
62
1
10
5.585
20
20.99
30
0
11
5.623
21
20.782
31
0
0
LINE
8
0
62
1
10
5.623
20
20.782
30
0
11
5.623
21
20.781
31
0
0
LINE
8
0
62
1
10
5.623
20
20.781
30
0
11
5.654
21
20.597
31
0
0
LINE
8
0
62
1
10
5.654
20
20.597
30
0
11
5.666
21
20.521
31
0
0
LINE
8
0
62
1
10
5.666
20
20.521
30
0
11
5.666
21
20.52
31
0
0
LINE
8
0
62
1
10
5.666
20
20.52
30
0
11
5.675
21
20.458
31
0
0
LINE
8
0
62
1
10
5.675
20
20.458
30
0
11
5.675
21
20.457
31
0
0
LINE
8
0
62
1
10
5.675
20
20.457
30
0
11
5.68
21
20.411
31
0
0
LINE
8
0
62
1
10
5.68
20
20.411
30
0
11
5.681
21
20.409
31
0
0
LINE
8
0
62
1
10
5.681
20
20.409
30
0
11
5.683
21
20.382
31
0
0
LINE
8
0
62
1
10
5.683
20
20.382
30
0
11
5.681
21
20.366
31
0
0
LINE
8
0
62
1
10
5.681
20
20.366
30
0
11
5.675
21
20.351
31
0
0
LINE
8
0
62
1
10
5.675
20
20.351
30
0
11
5.665
21
20.336
31
0
0
LINE
8
0
62
1
10
5.665
20
20.336
30
0
11
5.655
21
20.325
31
0
0
LINE
8
0
62
1
10
5.655
20
20.325
30
0
11
5.642
21
20.317
31
0
0
LINE
8
0
62
1
10
5.642
20
20.317
30
0
11
5.614
21
20.306
31
0
0
LINE
8
0
62
1
10
5.614
20
20.306
30
0
11
5.604
21
20.303
31
0
0
LINE
8
0
62
1
10
5.604
20
20.303
30
0
11
5.56
21
20.295
31
0
0
LINE
8
0
62
1
10
5.56
20
20.295
30
0
11
5.554
21
20.294
31
0
0
LINE
8
0
62
1
10
5.554
20
20.294
30
0
11
5.496
21
20.289
31
0
0
LINE
8
0
62
1
10
5.496
20
20.289
30
0
11
5.492
21
20.289
31
0
0
LINE
8
0
62
1
10
5.492
20
20.289
30
0
11
5.421
21
20.288
31
0
0
LINE
8
0
62
1
10
5.421
20
20.288
30
0
11
5.419
21
20.288
31
0
0
LINE
8
0
62
1
10
5.419
20
20.288
30
0
11
5.337
21
20.291
31
0
0
LINE
8
0
62
1
10
5.337
20
20.291
30
0
11
5.335
21
20.291
31
0
0
LINE
8
0
62
1
10
5.335
20
20.291
30
0
11
5.148
21
20.308
31
0
0
LINE
8
0
62
1
10
5.148
20
20.308
30
0
11
5.042
21
20.318
31
0
0
LINE
8
0
62
1
10
5.042
20
20.318
30
0
11
4.923
21
20.323
31
0
0
LINE
8
0
62
1
10
4.923
20
20.323
30
0
11
4.659
21
20.321
31
0
0
LINE
8
0
62
1
10
4.659
20
20.321
30
0
11
4.39
21
20.303
31
0
0
LINE
8
0
62
1
10
4.39
20
20.303
30
0
11
4.264
21
20.289
31
0
0
LINE
8
0
62
1
10
4.264
20
20.289
30
0
11
4.151
21
20.271
31
0
0
LINE
8
0
62
1
10
4.151
20
20.271
30
0
11
3.854
21
20.204
31
0
0
LINE
8
0
62
1
10
3.854
20
20.204
30
0
11
3.568
21
20.117
31
0
0
LINE
8
0
62
1
10
3.568
20
20.117
30
0
11
3.295
21
20.01
31
0
0
LINE
8
0
62
1
10
3.295
20
20.01
30
0
11
3.033
21
19.884
31
0
0
LINE
8
0
62
1
10
3.033
20
19.884
30
0
11
2.785
21
19.739
31
0
0
LINE
8
0
62
1
10
2.785
20
19.739
30
0
11
2.551
21
19.576
31
0
0
LINE
8
0
62
1
10
2.551
20
19.576
30
0
11
2.331
21
19.396
31
0
0
LINE
8
0
62
1
10
2.331
20
19.396
30
0
11
2.127
21
19.2
31
0
0
LINE
8
0
62
1
10
2.127
20
19.2
30
0
11
1.938
21
18.989
31
0
0
LINE
8
0
62
1
10
1.938
20
18.989
30
0
11
1.766
21
18.762
31
0
0
LINE
8
0
62
1
10
1.766
20
18.762
30
0
11
1.611
21
18.521
31
0
0
LINE
8
0
62
1
10
1.611
20
18.521
30
0
11
1.474
21
18.267
31
0
0
LINE
8
0
62
1
10
1.474
20
18.267
30
0
11
1.356
21
18
31
0
0
LINE
8
0
62
1
10
1.356
20
18
30
0
11
1.257
21
17.72
31
0
0
LINE
8
0
62
1
10
1.257
20
17.72
30
0
11
1.178
21
17.43
31
0
0
LINE
8
0
62
1
10
1.178
20
17.43
30
0
11
1.12
21
17.128
31
0
0
LINE
8
0
62
1
10
1.12
20
17.128
30
0
11
1.092
21
16.936
31
0
0
LINE
8
0
62
1
10
1.092
20
16.936
30
0
11
1.075
21
16.771
31
0
0
LINE
8
0
62
1
10
1.075
20
16.771
30
0
11
1.067
21
16.623
31
0
0
LINE
8
0
62
1
10
1.067
20
16.623
30
0
11
1.069
21
16.483
31
0
0
LINE
8
0
62
1
10
1.069
20
16.483
30
0
11
1.082
21
16.341
31
0
0
LINE
8
0
62
1
10
1.082
20
16.341
30
0
11
1.106
21
16.187
31
0
0
LINE
8
0
62
1
10
1.106
20
16.187
30
0
11
1.143
21
16.012
31
0
0
LINE
8
0
62
1
10
1.143
20
16.012
30
0
11
1.192
21
15.806
31
0
0
LINE
8
0
62
1
10
1.192
20
15.806
30
0
11
1.266
21
15.546
31
0
0
LINE
8
0
62
1
10
1.266
20
15.546
30
0
11
1.355
21
15.297
31
0
0
LINE
8
0
62
1
10
1.355
20
15.297
30
0
11
1.459
21
15.057
31
0
0
LINE
8
0
62
1
10
1.459
20
15.057
30
0
11
1.578
21
14.83
31
0
0
LINE
8
0
62
1
10
1.578
20
14.83
30
0
11
1.711
21
14.613
31
0
0
LINE
8
0
62
1
10
1.711
20
14.613
30
0
11
1.857
21
14.408
31
0
0
LINE
8
0
62
1
10
1.857
20
14.408
30
0
11
2.017
21
14.215
31
0
0
LINE
8
0
62
1
10
2.017
20
14.215
30
0
11
2.189
21
14.035
31
0
0
LINE
8
0
62
1
10
2.189
20
14.035
30
0
11
2.375
21
13.868
31
0
0
LINE
8
0
62
1
10
2.375
20
13.868
30
0
11
2.572
21
13.713
31
0
0
LINE
8
0
62
1
10
2.572
20
13.713
30
0
11
2.781
21
13.573
31
0
0
LINE
8
0
62
1
10
2.781
20
13.573
30
0
11
3.002
21
13.446
31
0
0
LINE
8
0
62
1
10
3.002
20
13.446
30
0
11
3.233
21
13.334
31
0
0
LINE
8
0
62
1
10
3.233
20
13.334
30
0
11
3.475
21
13.237
31
0
0
LINE
8
0
62
1
10
3.475
20
13.237
30
0
11
3.727
21
13.155
31
0
0
LINE
8
0
62
1
10
3.727
20
13.155
30
0
11
3.991
21
13.088
31
0
0
LINE
8
0
62
1
10
3.991
20
13.088
30
0
11
4.197
21
13.037
31
0
0
LINE
8
0
62
1
10
4.197
20
13.037
30
0
11
4.2
21
13.037
31
0
0
LINE
8
0
62
1
10
4.2
20
13.037
30
0
11
4.377
21
12.982
31
0
0
LINE
8
0
62
1
10
4.377
20
12.982
30
0
11
4.38
21
12.981
31
0
0
LINE
8
0
62
1
10
4.38
20
12.981
30
0
11
4.452
21
12.955
31
0
0
LINE
8
0
62
1
10
4.452
20
12.955
30
0
11
4.454
21
12.954
31
0
0
LINE
8
0
62
1
10
4.454
20
12.954
30
0
11
4.512
21
12.929
31
0
0
LINE
8
0
62
1
10
4.512
20
12.929
30
0
11
4.516
21
12.927
31
0
0
LINE
8
0
62
1
10
4.516
20
12.927
30
0
11
4.557
21
12.905
31
0
0
LINE
8
0
62
1
10
4.557
20
12.905
30
0
11
4.566
21
12.898
31
0
0
LINE
8
0
62
1
10
4.566
20
12.898
30
0
11
4.587
21
12.881
31
0
0
LINE
8
0
62
1
10
4.587
20
12.881
30
0
11
4.592
21
12.877
31
0
0
LINE
8
0
62
1
10
4.592
20
12.877
30
0
11
4.6
21
12.876
31
0
0
LINE
8
0
62
1
10
4.6
20
12.876
30
0
11
4.626
21
12.88
31
0
0
LINE
8
0
62
1
10
4.626
20
12.88
30
0
11
4.663
21
12.892
31
0
0
LINE
8
0
62
1
10
4.663
20
12.892
30
0
11
4.762
21
12.939
31
0
0
LINE
8
0
62
1
10
4.762
20
12.939
30
0
11
4.875
21
13.013
31
0
0
LINE
8
0
62
1
10
4.875
20
13.013
30
0
11
5.164
21
13.227
31
0
0
LINE
8
0
62
1
10
5.164
20
13.227
30
0
11
5.178
21
13.234
31
0
0
LINE
8
0
62
1
10
5.178
20
13.234
30
0
11
5.194
21
13.237
31
0
0
LINE
8
0
62
1
10
5.194
20
13.237
30
0
11
9.347
21
13.262
31
0
0
LINE
8
0
62
1
10
9.347
20
13.262
30
0
11
13.42
21
13.287
31
0
0
LINE
8
0
62
1
10
13.42
20
13.287
30
0
11
13.243
21
13.636
31
0
0
LINE
8
0
62
1
10
13.243
20
13.636
30
0
11
13.242
21
13.638
31
0
0
LINE
8
0
62
1
10
13.242
20
13.638
30
0
11
13.159
21
13.823
31
0
0
LINE
8
0
62
1
10
13.159
20
13.823
30
0
11
13.158
21
13.826
31
0
0
LINE
8
0
62
1
10
13.158
20
13.826
30
0
11
13.09
21
14.018
31
0
0
LINE
8
0
62
1
10
13.09
20
14.018
30
0
11
13.089
21
14.022
31
0
0
LINE
8
0
62
1
10
13.089
20
14.022
30
0
11
13.043
21
14.197
31
0
0
LINE
8
0
62
1
10
13.043
20
14.197
30
0
11
13.042
21
14.201
31
0
0
LINE
8
0
62
1
10
13.042
20
14.201
30
0
11
13.029
21
14.276
31
0
0
LINE
8
0
62
1
10
13.029
20
14.276
30
0
11
13.029
21
14.281
31
0
0
LINE
8
0
62
1
10
13.029
20
14.281
30
0
11
13.025
21
14.343
31
0
0
LINE
8
0
62
1
10
13.025
20
14.343
30
0
11
13.024
21
14.348
31
0
0
LINE
8
0
62
1
10
13.024
20
14.348
30
0
11
13.031
21
14.5
31
0
0
LINE
8
0
62
1
10
13.031
20
14.5
30
0
11
13.031
21
14.504
31
0
0
LINE
8
0
62
1
10
13.031
20
14.504
30
0
11
13.05
21
14.666
31
0
0
LINE
8
0
62
1
10
13.05
20
14.666
30
0
11
13.051
21
14.669
31
0
0
LINE
8
0
62
1
10
13.051
20
14.669
30
0
11
13.081
21
14.84
31
0
0
LINE
8
0
62
1
10
13.081
20
14.84
30
0
11
13.082
21
14.842
31
0
0
LINE
8
0
62
1
10
13.082
20
14.842
30
0
11
13.124
21
15.019
31
0
0
LINE
8
0
62
1
10
13.124
20
15.019
30
0
11
13.125
21
15.022
31
0
0
LINE
8
0
62
1
10
13.125
20
15.022
30
0
11
13.237
21
15.389
31
0
0
LINE
8
0
62
1
10
13.237
20
15.389
30
0
11
13.239
21
15.392
31
0
0
LINE
8
0
62
1
10
13.239
20
15.392
30
0
11
13.385
21
15.762
31
0
0
LINE
8
0
62
1
10
13.385
20
15.762
30
0
11
13.386
21
15.766
31
0
0
LINE
8
0
62
1
10
13.386
20
15.766
30
0
11
13.56
21
16.125
31
0
0
LINE
8
0
62
1
10
13.56
20
16.125
30
0
11
13.562
21
16.128
31
0
0
LINE
8
0
62
1
10
13.562
20
16.128
30
0
11
13.757
21
16.462
31
0
0
LINE
8
0
62
1
10
13.757
20
16.462
30
0
11
13.758
21
16.465
31
0
0
LINE
8
0
62
1
10
13.758
20
16.465
30
0
11
13.861
21
16.617
31
0
0
LINE
8
0
62
1
10
13.861
20
16.617
30
0
11
13.863
21
16.619
31
0
0
LINE
8
0
62
1
10
13.863
20
16.619
30
0
11
13.968
21
16.759
31
0
0
LINE
8
0
62
1
10
13.968
20
16.759
30
0
11
13.97
21
16.762
31
0
0
LINE
8
0
62
1
10
13.97
20
16.762
30
0
11
14.078
21
16.888
31
0
0
LINE
8
0
62
1
10
14.078
20
16.888
30
0
11
14.08
21
16.891
31
0
0
LINE
8
0
62
1
10
14.08
20
16.891
30
0
11
14.189
21
17.002
31
0
0
LINE
8
0
62
1
10
14.189
20
17.002
30
0
11
14.192
21
17.004
31
0
0
LINE
8
0
62
1
10
14.192
20
17.004
30
0
11
14.353
21
17.147
31
0
0
LINE
8
0
62
1
10
14.353
20
17.147
30
0
11
14.356
21
17.149
31
0
0
LINE
8
0
62
1
10
14.356
20
17.149
30
0
11
14.525
21
17.283
31
0
0
LINE
8
0
62
1
10
14.525
20
17.283
30
0
11
14.528
21
17.284
31
0
0
LINE
8
0
62
1
10
14.528
20
17.284
30
0
11
14.705
21
17.408
31
0
0
LINE
8
0
62
1
10
14.705
20
17.408
30
0
11
14.707
21
17.409
31
0
0
LINE
8
0
62
1
10
14.707
20
17.409
30
0
11
14.891
21
17.522
31
0
0
LINE
8
0
62
1
10
14.891
20
17.522
30
0
11
14.893
21
17.524
31
0
0
LINE
8
0
62
1
10
14.893
20
17.524
30
0
11
15.082
21
17.627
31
0
0
LINE
8
0
62
1
10
15.082
20
17.627
30
0
11
15.085
21
17.628
31
0
0
LINE
8
0
62
1
10
15.085
20
17.628
30
0
11
15.279
21
17.72
31
0
0
LINE
8
0
62
1
10
15.279
20
17.72
30
0
11
15.281
21
17.721
31
0
0
LINE
8
0
62
1
10
15.281
20
17.721
30
0
11
15.48
21
17.803
31
0
0
LINE
8
0
62
1
10
15.48
20
17.803
30
0
11
15.482
21
17.804
31
0
0
LINE
8
0
62
1
10
15.482
20
17.804
30
0
11
15.684
21
17.874
31
0
0
LINE
8
0
62
1
10
15.684
20
17.874
30
0
11
15.687
21
17.875
31
0
0
LINE
8
0
62
1
10
15.687
20
17.875
30
0
11
15.892
21
17.934
31
0
0
LINE
8
0
62
1
10
15.892
20
17.934
30
0
11
15.895
21
17.934
31
0
0
LINE
8
0
62
1
10
15.895
20
17.934
30
0
11
16.102
21
17.982
31
0
0
LINE
8
0
62
1
10
16.102
20
17.982
30
0
11
16.104
21
17.982
31
0
0
LINE
8
0
62
1
10
16.104
20
17.982
30
0
11
16.313
21
18.018
31
0
0
LINE
8
0
62
1
10
16.313
20
18.018
30
0
11
16.315
21
18.018
31
0
0
LINE
8
0
62
1
10
16.315
20
18.018
30
0
11
16.524
21
18.041
31
0
0
LINE
8
0
62
1
10
16.524
20
18.041
30
0
11
16.527
21
18.042
31
0
0
LINE
8
0
62
1
10
16.527
20
18.042
30
0
11
16.736
21
18.053
31
0
0
LINE
8
0
62
1
10
16.736
20
18.053
30
0
11
16.739
21
18.053
31
0
0
LINE
8
0
62
1
10
16.739
20
18.053
30
0
11
16.947
21
18.052
31
0
0
LINE
8
0
62
1
10
16.947
20
18.052
30
0
11
16.95
21
18.052
31
0
0
LINE
8
0
62
1
10
16.95
20
18.052
30
0
11
17.157
21
18.038
31
0
0
LINE
8
0
62
1
10
17.157
20
18.038
30
0
11
17.16
21
18.037
31
0
0
LINE
8
0
62
1
10
17.16
20
18.037
30
0
11
17.364
21
18.01
31
0
0
LINE
8
0
62
1
10
17.364
20
18.01
30
0
11
17.368
21
18.01
31
0
0
LINE
8
0
62
1
10
17.368
20
18.01
30
0
11
17.72
21
17.937
31
0
0
LINE
8
0
62
1
10
17.72
20
17.937
30
0
11
17.724
21
17.936
31
0
0
LINE
8
0
62
1
10
17.724
20
17.936
30
0
11
18.06
21
17.835
31
0
0
LINE
8
0
62
1
10
18.06
20
17.835
30
0
11
18.064
21
17.834
31
0
0
LINE
8
0
62
1
10
18.064
20
17.834
30
0
11
18.383
21
17.707
31
0
0
LINE
8
0
62
1
10
18.383
20
17.707
30
0
11
18.387
21
17.706
31
0
0
LINE
8
0
62
1
10
18.387
20
17.706
30
0
11
18.688
21
17.555
31
0
0
LINE
8
0
62
1
10
18.688
20
17.555
30
0
11
18.692
21
17.553
31
0
0
LINE
8
0
62
1
10
18.692
20
17.553
30
0
11
18.974
21
17.378
31
0
0
LINE
8
0
62
1
10
18.974
20
17.378
30
0
11
18.978
21
17.375
31
0
0
LINE
8
0
62
1
10
18.978
20
17.375
30
0
11
19.24
21
17.178
31
0
0
LINE
8
0
62
1
10
19.24
20
17.178
30
0
11
19.244
21
17.175
31
0
0
LINE
8
0
62
1
10
19.244
20
17.175
30
0
11
19.486
21
16.957
31
0
0
LINE
8
0
62
1
10
19.486
20
16.957
30
0
11
19.489
21
16.954
31
0
0
LINE
8
0
62
1
10
19.489
20
16.954
30
0
11
19.709
21
16.715
31
0
0
LINE
8
0
62
1
10
19.709
20
16.715
30
0
11
19.712
21
16.712
31
0
0
LINE
8
0
62
1
10
19.712
20
16.712
30
0
11
19.909
21
16.454
31
0
0
LINE
8
0
62
1
10
19.909
20
16.454
30
0
11
19.911
21
16.45
31
0
0
LINE
8
0
62
1
10
19.911
20
16.45
30
0
11
20.085
21
16.175
31
0
0
LINE
8
0
62
1
10
20.085
20
16.175
30
0
11
20.087
21
16.171
31
0
0
LINE
8
0
62
1
10
20.087
20
16.171
30
0
11
20.236
21
15.878
31
0
0
LINE
8
0
62
1
10
20.236
20
15.878
30
0
11
20.238
21
15.874
31
0
0
LINE
8
0
62
1
10
20.238
20
15.874
30
0
11
20.361
21
15.566
31
0
0
LINE
8
0
62
1
10
20.361
20
15.566
30
0
11
20.363
21
15.562
31
0
0
LINE
8
0
62
1
10
20.363
20
15.562
30
0
11
20.46
21
15.239
31
0
0
LINE
8
0
62
1
10
20.46
20
15.239
30
0
11
20.461
21
15.235
31
0
0
LINE
8
0
62
1
10
20.461
20
15.235
30
0
11
20.53
21
14.899
31
0
0
LINE
8
0
62
1
10
20.53
20
14.899
30
0
11
20.531
21
14.894
31
0
0
LINE
8
0
62
1
10
20.531
20
14.894
30
0
11
20.572
21
14.546
31
0
0
LINE
8
0
62
1
10
20.572
20
14.546
30
0
11
20.572
21
14.542
31
0
0
LINE
8
0
62
1
10
20.572
20
14.542
30
0
11
20.584
21
14.182
31
0
0
LINE
8
0
62
1
10
20.584
20
14.182
30
0
11
20.584
21
14.178
31
0
0
LINE
8
0
62
1
10
20.584
20
14.178
30
0
11
20.57
21
13.878
31
0
0
LINE
8
0
62
1
10
20.57
20
13.878
30
0
11
20.57
21
13.874
31
0
0
LINE
8
0
62
1
10
20.57
20
13.874
30
0
11
20.533
21
13.582
31
0
0
LINE
8
0
62
1
10
20.533
20
13.582
30
0
11
20.533
21
13.578
31
0
0
LINE
8
0
62
1
10
20.533
20
13.578
30
0
11
20.474
21
13.294
31
0
0
LINE
8
0
62
1
10
20.474
20
13.294
30
0
11
20.473
21
13.29
31
0
0
LINE
8
0
62
1
10
20.473
20
13.29
30
0
11
20.391
21
13.014
31
0
0
LINE
8
0
62
1
10
20.391
20
13.014
30
0
11
20.39
21
13.01
31
0
0
LINE
8
0
62
1
10
20.39
20
13.01
30
0
11
20.286
21
12.741
31
0
0
LINE
8
0
62
1
10
20.286
20
12.741
30
0
11
20.284
21
12.737
31
0
0
LINE
8
0
62
1
10
20.284
20
12.737
30
0
11
20.157
21
12.476
31
0
0
LINE
8
0
62
1
10
20.157
20
12.476
30
0
11
20.155
21
12.473
31
0
0
LINE
8
0
62
1
10
20.155
20
12.473
30
0
11
20.006
21
12.219
31
0
0
LINE
8
0
62
1
10
20.006
20
12.219
30
0
11
20.004
21
12.215
31
0
0
LINE
8
0
62
1
10
20.004
20
12.215
30
0
11
19.831
21
11.968
31
0
0
LINE
8
0
62
1
10
19.831
20
11.968
30
0
11
19.83
21
11.967
31
0
0
LINE
8
0
62
1
10
19.83
20
11.967
30
0
11
19.522
21
11.558
31
0
0
LINE
8
0
62
1
10
19.522
20
11.558
30
0
11
20.406
21
11.558
31
0
0
LINE
8
0
62
1
10
20.406
20
11.558
30
0
11
20.629
21
11.56
31
0
0
LINE
8
0
62
1
10
20.629
20
11.56
30
0
11
20.835
21
11.565
31
0
0
LINE
8
0
62
1
10
20.835
20
11.565
30
0
11
21.025
21
11.575
31
0
0
LINE
8
0
62
1
10
21.025
20
11.575
30
0
11
21.201
21
11.59
31
0
0
LINE
8
0
62
1
10
21.201
20
11.59
30
0
11
21.363
21
11.609
31
0
0
LINE
8
0
62
1
10
21.363
20
11.609
30
0
11
21.513
21
11.634
31
0
0
LINE
8
0
62
1
10
21.513
20
11.634
30
0
11
21.653
21
11.665
31
0
0
LINE
8
0
62
1
10
21.653
20
11.665
30
0
11
21.783
21
11.701
31
0
0
LINE
8
0
62
1
10
21.783
20
11.701
30
0
11
22.025
21
11.796
31
0
0
LINE
8
0
62
1
10
22.025
20
11.796
30
0
11
22.247
21
11.92
31
0
0
LINE
8
0
62
1
10
22.247
20
11.92
30
0
11
22.462
21
12.078
31
0
0
LINE
8
0
62
1
10
22.462
20
12.078
30
0
11
22.57
21
12.171
31
0
0
LINE
8
0
62
1
10
22.57
20
12.171
30
0
11
22.681
21
12.274
31
0
0
LINE
8
0
62
1
10
22.681
20
12.274
30
0
11
23.128
21
12.705
31
0
0
LINE
8
0
62
1
10
23.128
20
12.705
30
0
11
23.143
21
12.715
31
0
0
LINE
8
0
62
1
10
23.143
20
12.715
30
0
11
23.161
21
12.719
31
0
0
LINE
8
0
62
1
10
23.161
20
12.719
30
0
11
23.179
21
12.716
31
0
0
LINE
8
0
62
1
10
23.179
20
12.716
30
0
11
23.668
21
12.544
31
0
0
LINE
8
0
62
1
10
23.668
20
12.544
30
0
11
23.798
21
12.503
31
0
0
LINE
8
0
62
1
10
23.798
20
12.503
30
0
11
23.935
21
12.468
31
0
0
LINE
8
0
62
1
10
23.935
20
12.468
30
0
11
24.234
21
12.413
31
0
0
LINE
8
0
62
1
10
24.234
20
12.413
30
0
11
24.554
21
12.382
31
0
0
LINE
8
0
62
1
10
24.554
20
12.382
30
0
11
24.885
21
12.373
31
0
0
LINE
8
0
62
1
10
24.885
20
12.373
30
0
11
25.22
21
12.386
31
0
0
LINE
8
0
62
1
10
25.22
20
12.386
30
0
11
25.547
21
12.422
31
0
0
LINE
8
0
62
1
10
25.547
20
12.422
30
0
11
25.859
21
12.48
31
0
0
LINE
8
0
62
1
10
25.859
20
12.48
30
0
11
26.145
21
12.56
31
0
0
LINE
8
0
62
1
10
26.145
20
12.56
30
0
11
26.477
21
12.689
31
0
0
LINE
8
0
62
1
10
26.477
20
12.689
30
0
11
26.794
21
12.847
31
0
0
LINE
8
0
62
1
10
26.794
20
12.847
30
0
11
27.094
21
13.032
31
0
0
LINE
8
0
62
1
10
27.094
20
13.032
30
0
11
27.375
21
13.241
31
0
0
LINE
8
0
62
1
10
27.375
20
13.241
30
0
11
27.636
21
13.473
31
0
0
LINE
8
0
62
1
10
27.636
20
13.473
30
0
11
27.877
21
13.725
31
0
0
LINE
8
0
62
1
10
27.877
20
13.725
30
0
11
28.095
21
13.995
31
0
0
LINE
8
0
62
1
10
28.095
20
13.995
30
0
11
28.29
21
14.282
31
0
0
LINE
8
0
62
1
10
28.29
20
14.282
30
0
11
28.46
21
14.582
31
0
0
LINE
8
0
62
1
10
28.46
20
14.582
30
0
11
28.603
21
14.895
31
0
0
LINE
8
0
62
1
10
28.603
20
14.895
30
0
11
28.719
21
15.217
31
0
0
LINE
8
0
62
1
10
28.719
20
15.217
30
0
11
28.807
21
15.547
31
0
0
LINE
8
0
62
1
10
28.807
20
15.547
30
0
11
28.864
21
15.882
31
0
0
LINE
8
0
62
1
10
28.864
20
15.882
30
0
11
28.89
21
16.221
31
0
0
LINE
8
0
62
1
10
28.89
20
16.221
30
0
11
28.883
21
16.561
31
0
0
LINE
8
0
62
1
10
28.883
20
16.561
30
0
11
28.842
21
16.901
31
0
0
LINE
8
0
62
1
10
28.842
20
16.901
30
0
11
28.775
21
17.217
31
0
0
LINE
8
0
62
1
10
28.775
20
17.217
30
0
11
28.684
21
17.528
31
0
0
LINE
8
0
62
1
10
28.684
20
17.528
30
0
11
28.571
21
17.831
31
0
0
LINE
8
0
62
1
10
28.571
20
17.831
30
0
11
28.435
21
18.124
31
0
0
LINE
8
0
62
1
10
28.435
20
18.124
30
0
11
28.279
21
18.405
31
0
0
LINE
8
0
62
1
10
28.279
20
18.405
30
0
11
28.105
21
18.67
31
0
0
LINE
8
0
62
1
10
28.105
20
18.67
30
0
11
27.912
21
18.918
31
0
0
LINE
8
0
62
1
10
27.912
20
18.918
30
0
11
27.703
21
19.145
31
0
0
LINE
8
0
62
1
10
27.703
20
19.145
30
0
11
27.496
21
19.335
31
0
0
LINE
8
0
62
1
10
27.496
20
19.335
30
0
11
27.264
21
19.517
31
0
0
LINE
8
0
62
1
10
27.264
20
19.517
30
0
11
27.015
21
19.688
31
0
0
LINE
8
0
62
1
10
27.015
20
19.688
30
0
11
26.754
21
19.844
31
0
0
LINE
8
0
62
1
10
26.754
20
19.844
30
0
11
26.491
21
19.979
31
0
0
LINE
8
0
62
1
10
26.491
20
19.979
30
0
11
26.233
21
20.091
31
0
0
LINE
8
0
62
1
10
26.233
20
20.091
30
0
11
25.986
21
20.175
31
0
0
LINE
8
0
62
1
10
25.986
20
20.175
30
0
11
25.87
21
20.205
31
0
0
LINE
8
0
62
1
10
25.87
20
20.205
30
0
11
25.759
21
20.227
31
0
0
LINE
8
0
62
1
10
25.759
20
20.227
30
0
11
25.431
21
20.281
31
0
0
LINE
8
0
62
1
10
25.431
20
20.281
30
0
11
25.415
21
20.287
31
0
0
LINE
8
0
62
1
10
25.415
20
20.287
30
0
11
25.401
21
20.298
31
0
0
LINE
8
0
62
1
10
25.401
20
20.298
30
0
11
25.392
21
20.313
31
0
0
LINE
8
0
62
1
10
25.392
20
20.313
30
0
11
25.389
21
20.33
31
0
0
LINE
8
0
62
1
10
25.389
20
20.33
30
0
11
25.386
21
21.477
31
0
0
LINE
8
0
62
1
10
25.386
20
21.477
30
0
11
25.383
21
21.72
31
0
0
LINE
8
0
62
1
10
25.383
20
21.72
30
0
11
25.376
21
21.952
31
0
0
LINE
8
0
62
1
10
25.376
20
21.952
30
0
11
25.347
21
22.39
31
0
0
LINE
8
0
62
1
10
25.347
20
22.39
30
0
11
25.299
21
22.798
31
0
0
LINE
8
0
62
1
10
25.299
20
22.798
30
0
11
25.229
21
23.185
31
0
0
LINE
8
0
62
1
10
25.229
20
23.185
30
0
11
25.135
21
23.559
31
0
0
LINE
8
0
62
1
10
25.135
20
23.559
30
0
11
25.016
21
23.927
31
0
0
LINE
8
0
62
1
10
25.016
20
23.927
30
0
11
24.87
21
24.298
31
0
0
LINE
8
0
62
1
10
24.87
20
24.298
30
0
11
24.696
21
24.679
31
0
0
LINE
8
0
62
1
10
24.696
20
24.679
30
0
11
24.558
21
24.949
31
0
0
LINE
8
0
62
1
10
24.558
20
24.949
30
0
11
24.409
21
25.211
31
0
0
LINE
8
0
62
1
10
24.409
20
25.211
30
0
11
24.25
21
25.466
31
0
0
LINE
8
0
62
1
10
24.25
20
25.466
30
0
11
24.081
21
25.713
31
0
0
LINE
8
0
62
1
10
24.081
20
25.713
30
0
11
23.902
21
25.952
31
0
0
LINE
8
0
62
1
10
23.902
20
25.952
30
0
11
23.715
21
26.182
31
0
0
LINE
8
0
62
1
10
23.715
20
26.182
30
0
11
23.519
21
26.404
31
0
0
LINE
8
0
62
1
10
23.519
20
26.404
30
0
11
23.314
21
26.618
31
0
0
LINE
8
0
62
1
10
23.314
20
26.618
30
0
11
23.102
21
26.822
31
0
0
LINE
8
0
62
1
10
23.102
20
26.822
30
0
11
22.882
21
27.018
31
0
0
LINE
8
0
62
1
10
22.882
20
27.018
30
0
11
22.654
21
27.205
31
0
0
LINE
8
0
62
1
10
22.654
20
27.205
30
0
11
22.42
21
27.382
31
0
0
LINE
8
0
62
1
10
22.42
20
27.382
30
0
11
22.18
21
27.549
31
0
0
LINE
8
0
62
1
10
22.18
20
27.549
30
0
11
21.933
21
27.707
31
0
0
LINE
8
0
62
1
10
21.933
20
27.707
30
0
11
21.681
21
27.855
31
0
0
LINE
8
0
62
1
10
21.681
20
27.855
30
0
11
21.423
21
27.993
31
0
0
LINE
8
0
62
1
10
21.423
20
27.993
30
0
11
21.16
21
28.12
31
0
0
LINE
8
0
62
1
10
21.16
20
28.12
30
0
11
20.893
21
28.237
31
0
0
LINE
8
0
62
1
10
20.893
20
28.237
30
0
11
20.622
21
28.343
31
0
0
LINE
8
0
62
1
10
20.622
20
28.343
30
0
11
20.346
21
28.439
31
0
0
LINE
8
0
62
1
10
20.346
20
28.439
30
0
11
20.068
21
28.523
31
0
0
LINE
8
0
62
1
10
20.068
20
28.523
30
0
11
20.062
21
28.524
31
0
0
ARC
8
0
62
1
10
24.5
20
69
30
0
40
2.65
50
-136.757913
51
43.242087
0
ARC
8
0
62
1
10
24.5
20
69
30
0
40
2.65
50
43.242087
51
-136.757913
0
ARC
8
0
62
1
10
5.5
20
69
30
0
40
2.65
50
-6.070995
51
173.929005
0
ARC
8
0
62
1
10
5.5
20
69
30
0
40
2.65
50
173.929005
51
-6.070995
0
LINE
8
0
62
1
10
8.135
20
74.483
30
0
11
30
21
74.483
31
0
0
LINE
8
0
62
1
10
30
20
74.483
30
0
11
30.019
21
74.48
31
0
0
LINE
8
0
62
1
10
30.019
20
74.48
30
0
11
30.035
21
74.469
31
0
0
LINE
8
0
62
1
10
30.035
20
74.469
30
0
11
30.046
21
74.453
31
0
0
LINE
8
0
62
1
10
30.046
20
74.453
30
0
11
30.05
21
74.434
31
0
0
LINE
8
0
62
1
10
30.05
20
74.434
30
0
11
30.05
21
0
31
0
0
LINE
8
0
62
1
10
30.05
20
0
30
0
11
30.046
21
-0.019
31
0
0
LINE
8
0
62
1
10
30.046
20
-0.019
30
0
11
30.035
21
-0.035
31
0
0
LINE
8
0
62
1
10
30.035
20
-0.035
30
0
11
30.019
21
-0.046
31
0
0
LINE
8
0
62
1
10
30.019
20
-0.046
30
0
11
30
21
-0.05
31
0
0
LINE
8
0
62
1
10
30
20
-0.05
30
0
11
0
21
-0.05
31
0
0
LINE
8
0
62
1
10
0
20
-0.05
30
0
11
-0.019
21
-0.046
31
0
0
LINE
8
0
62
1
10
-0.019
20
-0.046
30
0
11
-0.035
21
-0.035
31
0
0
LINE
8
0
62
1
10
-0.035
20
-0.035
30
0
11
-0.046
21
-0.019
31
0
0
LINE
8
0
62
1
10
-0.046
20
-0.019
30
0
11
-0.05
21
0
31
0
0
LINE
8
0
62
1
10
-0.05
20
0
30
0
11
-0.05
21
74.434
31
0
0
LINE
8
0
62
1
10
-0.05
20
74.434
30
0
11
-0.046
21
74.453
31
0
0
LINE
8
0
62
1
10
-0.046
20
74.453
30
0
11
-0.035
21
74.469
31
0
0
LINE
8
0
62
1
10
-0.035
20
74.469
30
0
11
-0.019
21
74.48
31
0
0
LINE
8
0
62
1
10
-0.019
20
74.48
30
0
11
0
21
74.483
31
0
0
LINE
8
0
62
1
10
0
20
74.483
30
0
11
8.135
21
74.483
31
0
0
ENDSEC
0
EOF
